<?xml version="1.0" standalone="no"?>
<!DOCTYPE svg PUBLIC "-//W3C//DTD SVG 20010904//EN"
 "http://www.w3.org/TR/2001/REC-SVG-20010904/DTD/svg10.dtd">
<svg version="1.0" xmlns="http://www.w3.org/2000/svg"
 width="16.000000pt" height="16.000000pt" viewBox="0 0 16.000000 16.000000"
 preserveAspectRatio="xMidYMid meet">
<metadata>
Created by potrace 1.11, written by Peter Selinger 2001-2013
</metadata>
<g transform="translate(0.000000,16.000000) scale(0.002286,-0.002286)"
fill="#000000" stroke="none">
<path d="M4266 6987 c3 -9 16 -13 34 -12 15 1 34 -2 42 -7 9 -5 4 -7 -14 -4
-15 3 -30 0 -34 -5 -4 -6 -10 -6 -18 0 -7 6 -15 9 -17 6 -11 -10 -68 -14 -74
-5 -4 7 -13 7 -26 0 -10 -6 -19 -8 -19 -4 0 3 -8 0 -17 -7 -9 -8 -14 -9 -10
-2 5 7 0 9 -13 6 -11 -3 -17 -10 -13 -17 4 -6 -1 -5 -11 3 -14 12 -19 12 -29
1 -9 -9 -9 -11 0 -6 6 3 14 3 17 -2 2 -4 -5 -8 -17 -9 -150 -5 -153 -6 -148
-35 0 -5 -17 -8 -39 -8 -25 0 -40 -5 -40 -12 0 -9 -3 -9 -9 1 -12 18 -42 6
-35 -14 3 -8 2 -15 -4 -15 -6 0 -13 6 -15 13 -4 10 -6 10 -6 0 -1 -7 -13 -13
-27 -13 -17 0 -23 -4 -18 -12 6 -10 4 -10 -7 -2 -17 13 -39 12 -38 -1 0 -5 6
-9 14 -7 7 1 16 -1 19 -6 5 -8 0 -9 -76 -12 -26 -2 -45 -7 -42 -11 3 -5 9 -7
14 -4 5 3 12 0 16 -6 4 -8 3 -9 -4 -5 -7 4 -12 2 -12 -3 0 -6 -18 -11 -40 -11
-27 0 -40 -4 -40 -14 0 -8 -16 -16 -40 -20 -36 -6 -45 -14 -41 -39 1 -5 -3 -6
-9 -2 -6 4 -8 16 -4 28 6 22 6 22 -9 2 -8 -11 -13 -24 -9 -29 3 -5 -2 -7 -11
-3 -9 3 -19 2 -22 -4 -4 -5 -10 -7 -15 -4 -5 3 -12 0 -16 -6 -4 -7 -3 -9 2 -6
6 3 16 2 24 -4 12 -7 11 -9 -5 -10 -38 -1 -70 -10 -80 -21 -7 -8 -6 -9 2 -4 6
3 15 1 19 -5 4 -7 3 -9 -4 -5 -6 3 -13 2 -17 -3 -3 -6 -12 -8 -20 -4 -8 3 -15
0 -15 -7 0 -7 -7 -10 -15 -7 -8 4 -17 1 -21 -5 -4 -6 -3 -8 4 -4 6 3 13 3 16
-2 2 -4 -9 -9 -27 -10 -38 -3 -43 -8 -29 -25 11 -12 -2 -16 -65 -20 -7 0 -10
-4 -7 -9 3 -5 9 -6 13 -4 4 3 8 0 8 -7 0 -7 -11 -13 -25 -14 -14 0 -28 -6 -32
-13 -6 -9 -9 -9 -13 1 -3 8 -6 2 -6 -13 -1 -21 -5 -25 -22 -21 -16 5 -20 2
-17 -13 2 -12 -4 -20 -17 -22 -11 -2 -24 -10 -28 -18 -4 -8 -13 -14 -19 -14
-6 0 -5 7 3 18 13 15 12 16 -3 3 -10 -7 -16 -17 -13 -21 3 -5 1 -11 -5 -15 -6
-4 -7 -12 -4 -18 4 -7 4 -9 -1 -5 -4 4 -15 2 -24 -4 -11 -9 -10 -6 2 9 14 16
15 23 6 29 -7 4 -10 3 -6 -3 4 -6 -5 -21 -18 -33 -14 -13 -25 -30 -25 -38 0
-9 -7 -13 -20 -9 -16 4 -20 0 -20 -18 0 -18 -5 -23 -20 -20 -14 3 -20 -2 -20
-16 0 -12 -7 -19 -20 -19 -13 0 -20 -7 -20 -20 0 -18 -10 -25 -32 -21 -5 0 -8
-8 -8 -18 0 -11 -6 -22 -12 -24 -10 -4 -10 -6 0 -6 15 -1 16 -31 1 -31 -5 0
-7 6 -3 13 5 7 1 6 -10 -3 -11 -8 -14 -16 -7 -18 8 -3 8 -9 0 -24 -6 -11 -9
-33 -7 -49 3 -19 0 -29 -8 -29 -7 0 -16 -5 -20 -12 -4 -7 -3 -8 4 -4 7 4 17 4
24 0 8 -5 6 -10 -8 -15 -17 -7 -17 -8 -1 -8 19 -1 24 -21 5 -21 -9 0 -8 -4 2
-10 12 -8 12 -10 1 -10 -9 0 -10 -4 -4 -12 5 -7 9 -25 8 -40 0 -16 3 -28 8
-28 4 0 6 -10 3 -22 -3 -13 -3 -17 0 -10 9 19 24 4 24 -24 0 -21 9 -29 33 -25
4 0 7 -8 7 -19 0 -18 10 -25 33 -21 4 0 7 -7 7 -18 0 -11 7 -18 18 -18 46 0
63 -4 57 -13 -3 -5 -1 -10 5 -10 6 0 9 -4 6 -8 -2 -4 12 -8 32 -7 20 0 49 -3
65 -7 15 -3 27 -3 27 2 0 4 9 6 20 3 11 -3 17 -10 14 -17 -3 -6 0 -4 8 5 8 10
28 15 52 14 26 0 40 4 44 15 8 21 22 29 45 25 15 -3 16 -1 7 10 -8 10 -8 15 1
21 7 4 9 3 6 -3 -4 -6 0 -14 9 -17 11 -4 15 -2 11 7 -3 8 -1 20 4 28 6 10 9
10 9 2 0 -7 5 -13 11 -13 6 0 9 7 5 15 -3 8 -1 15 4 15 6 0 10 8 11 18 0 10 3
12 6 5 8 -20 23 -15 23 7 0 13 7 20 20 20 18 0 25 10 21 33 0 4 10 7 23 7 19
0 24 4 21 20 -3 14 2 20 14 20 10 0 21 9 24 19 4 15 11 18 27 14 17 -5 21 -3
15 6 -5 10 -1 11 16 7 l24 -7 -25 16 c-23 15 -23 15 -2 10 14 -4 22 -2 22 5 0
7 7 9 15 6 10 -4 19 3 25 18 6 18 14 23 29 19 16 -4 19 -1 14 15 -2 11 0 23 7
27 7 4 10 1 8 -8 -2 -9 2 -16 7 -16 6 -1 10 5 10 12 0 6 10 13 23 15 12 2 22
9 22 16 0 13 14 16 59 16 23 0 23 0 4 18 -10 9 -14 13 -7 9 7 -4 14 -3 16 2 1
6 18 11 35 13 18 1 35 8 37 15 6 15 -15 13 -27 -2 -5 -6 -7 -4 -5 4 4 15 21
20 77 23 23 1 35 7 39 20 3 13 14 18 43 18 21 0 41 5 45 12 5 7 3 8 -7 3 -12
-8 -12 -6 0 8 9 12 28 17 62 17 26 0 51 5 55 12 5 7 2 8 -7 3 -11 -6 -11 -5
-3 5 7 6 39 13 71 13 54 2 59 4 56 22 -4 16 -3 17 5 6 15 -21 50 -22 45 -2 -3
13 6 16 49 15 29 0 63 3 76 8 12 4 22 4 22 -1 0 -5 11 -8 24 -7 13 0 22 4 19
9 -6 10 5 9 27 -3 15 -8 18 -7 14 4 -3 9 -18 13 -40 11 -19 -1 -36 1 -39 4 -2
4 26 7 61 7 35 1 64 -2 64 -7 0 -4 -9 -6 -20 -4 -12 2 -18 0 -15 -6 4 -5 10
-7 15 -4 5 3 12 1 15 -5 5 -8 11 -7 21 1 11 9 14 8 14 -2 0 -12 2 -12 9 -1 9
15 17 15 45 0 13 -7 16 -7 11 2 -9 14 27 10 37 -5 5 -6 8 -5 8 4 0 11 3 11 15
1 9 -8 15 -8 15 -2 0 6 12 8 28 5 15 -2 63 -6 107 -8 144 -5 170 -7 152 -12
-9 -2 -15 -9 -12 -14 4 -5 14 -5 26 1 14 8 19 8 17 -2 -3 -12 5 -13 112 -19
19 -1 29 -4 23 -6 -7 -3 -13 -8 -13 -12 0 -7 18 -9 82 -11 17 -1 28 -8 31 -21
4 -16 14 -19 57 -19 43 0 50 -3 48 -17 -2 -14 6 -19 42 -23 36 -4 44 -9 42
-22 -2 -15 5 -18 37 -18 22 0 43 -4 46 -10 4 -6 -1 -7 -12 -4 -16 5 -16 4 1
-10 11 -9 25 -16 30 -17 25 -2 48 -8 54 -15 4 -4 -1 -4 -10 -1 -10 3 -20 2
-22 -2 -3 -5 12 -11 33 -15 27 -4 40 -12 44 -26 3 -13 10 -18 21 -14 12 4 16
0 16 -16 0 -12 4 -18 10 -15 6 4 8 10 5 15 -3 5 -1 11 4 15 6 3 8 -3 6 -14 -3
-19 26 -39 48 -33 4 1 3 -7 -4 -19 -6 -12 -7 -19 -1 -15 6 3 21 2 34 -3 12 -6
17 -10 10 -10 -24 -2 -1 -21 25 -21 20 0 24 -4 20 -20 -4 -16 0 -20 20 -20 20
0 23 -4 18 -20 -5 -16 -2 -20 14 -20 19 0 26 -10 22 -32 0 -5 8 -8 19 -8 13 0
20 -7 20 -20 0 -14 7 -20 21 -20 15 0 19 -5 15 -15 -4 -11 3 -19 20 -25 16 -6
24 -16 22 -27 -2 -13 3 -17 16 -15 10 2 16 -1 13 -6 -4 -4 0 -21 8 -36 8 -15
9 -24 3 -20 -7 4 -8 3 -4 -4 4 -7 15 -12 25 -12 12 0 17 -8 17 -27 -1 -18 6
-31 19 -38 11 -5 20 -19 20 -30 0 -15 6 -20 23 -19 16 1 20 -2 13 -9 -6 -6 -7
-16 -1 -27 5 -10 8 -27 5 -38 -2 -14 3 -23 16 -27 20 -7 21 -10 21 -57 1 -18
6 -28 15 -28 8 0 11 5 7 12 -4 7 -3 8 5 4 9 -6 9 -11 0 -22 -8 -10 -8 -14 0
-14 7 0 11 -20 11 -51 0 -45 2 -51 18 -47 12 3 19 0 19 -9 0 -9 -7 -11 -21 -7
-15 4 -17 3 -7 -4 11 -8 11 -11 0 -16 -8 -3 -4 -4 9 -2 21 4 22 1 23 -62 1
-37 1 -73 0 -79 -2 -16 15 -17 25 -1 4 6 3 8 -4 4 -6 -3 -9 1 -8 9 1 9 6 15
12 15 10 0 11 -21 13 -163 1 -64 4 -86 13 -81 7 5 8 3 2 -7 -14 -24 -13 -40 3
-37 9 2 17 -5 19 -15 2 -14 -1 -16 -11 -7 -10 8 -15 8 -21 -1 -4 -8 -3 -9 4
-5 11 6 16 -6 13 -26 0 -5 3 -8 7 -8 5 0 9 -13 9 -30 0 -16 -4 -30 -8 -30 -4
0 -6 11 -5 25 2 14 -1 22 -7 18 -6 -3 -7 -1 -3 5 4 7 3 12 -1 12 -5 0 -9 -27
-9 -60 0 -33 3 -60 7 -60 3 0 6 8 5 18 0 9 3 18 9 20 5 1 10 -23 10 -54 1 -47
-2 -58 -17 -62 -10 -2 -18 -9 -18 -14 0 -5 10 -7 23 -4 12 3 16 3 9 0 -6 -3
-10 -10 -7 -14 3 -5 0 -12 -6 -16 -8 -4 -9 -3 -5 4 4 7 2 12 -3 12 -7 0 -12
-36 -13 -97 -2 -133 -2 -138 -10 -140 -17 -6 -20 -2 -9 11 9 11 9 16 0 22 -8
4 -9 3 -5 -4 4 -7 3 -12 -2 -12 -5 0 -9 -15 -9 -32 0 -40 -11 -119 -18 -126
-3 -3 -5 0 -5 6 0 7 -4 12 -10 12 -5 0 -10 -7 -10 -15 0 -8 6 -15 13 -15 9 0
9 -2 -1 -9 -7 -4 -14 -22 -14 -39 -1 -22 -7 -34 -20 -38 -15 -4 -16 -9 -8 -19
7 -8 7 -16 1 -19 -5 -3 -8 -20 -7 -36 1 -18 -4 -36 -13 -43 -14 -10 -14 -10
-3 4 10 14 10 18 -4 23 -9 4 -19 4 -22 1 -3 -3 0 -5 7 -5 8 0 9 -6 3 -17 -5
-10 -8 -28 -7 -40 1 -14 -4 -23 -12 -23 -7 0 -13 5 -13 12 0 6 -3 8 -7 4 -5
-4 1 -14 11 -22 20 -14 19 -14 -1 -14 -16 0 -20 -6 -18 -27 2 -38 -5 -55 -21
-49 -8 3 -15 0 -15 -7 -1 -7 -2 -19 -3 -27 0 -8 -7 -15 -13 -15 -13 0 -16 -16
-6 -25 4 -3 3 1 -1 7 -5 9 -2 11 9 7 19 -8 14 -14 -12 -18 -12 -2 -18 -11 -17
-29 1 -21 -2 -25 -15 -17 -13 7 -17 4 -18 -13 -3 -54 -7 -65 -24 -62 -11 2
-16 -3 -15 -18 1 -13 -4 -21 -12 -19 -10 2 -10 -2 -2 -19 11 -19 10 -20 -9
-14 -18 5 -21 2 -21 -19 0 -24 -4 -27 -27 -25 -5 0 -11 -10 -14 -23 -3 -13
-10 -22 -16 -21 -5 1 -10 -3 -11 -10 -1 -7 -3 -23 -4 -37 -2 -18 -9 -25 -24
-24 -11 1 -21 -5 -21 -12 0 -7 5 -10 11 -7 6 4 2 -4 -9 -16 -13 -15 -21 -18
-24 -10 -2 6 -10 -3 -17 -20 -8 -18 -17 -30 -22 -27 -5 3 -9 0 -10 -7 -3 -37
-11 -52 -29 -57 -12 -3 -19 -12 -17 -22 1 -12 -4 -18 -17 -18 -12 0 -19 -7
-19 -20 0 -17 -9 -24 -30 -22 -3 0 -7 -7 -8 -16 -5 -42 -10 -56 -20 -60 -7 -2
-12 1 -12 8 0 6 4 9 8 6 5 -3 9 1 9 8 0 7 -6 13 -12 13 -12 0 -13 -6 -16 -53
-1 -14 -4 -22 -8 -18 -14 20 -31 13 -31 -12 0 -17 -6 -28 -20 -31 -11 -3 -20
-12 -20 -19 0 -13 -13 -19 -34 -15 -5 1 -6 -7 -3 -19 5 -18 -1 -24 -20 -18 -5
2 -7 7 -5 11 1 5 -2 6 -6 3 -5 -3 -8 -17 -7 -31 3 -24 -12 -32 -48 -26 -4 1
-3 -8 3 -19 11 -20 5 -25 -29 -21 -7 2 -10 -2 -7 -7 10 -17 -5 -41 -21 -35
-13 5 -15 2 -11 -15 5 -18 2 -22 -18 -22 -18 0 -24 -5 -22 -17 2 -10 -5 -19
-18 -22 -13 -4 -20 -13 -18 -24 1 -12 -2 -17 -11 -13 -18 7 -37 -18 -37 -49 0
-14 -3 -23 -6 -21 -8 9 -33 -15 -26 -25 11 -18 -7 -30 -24 -17 -12 10 -14 10
-8 1 4 -8 2 -13 -4 -13 -7 0 -10 -7 -6 -15 5 -13 -9 -20 -35 -17 -4 1 -5 -8
-2 -18 3 -12 0 -20 -7 -20 -9 0 -10 -3 -1 -13 13 -16 5 -27 -21 -27 -15 0 -18
-5 -13 -20 4 -14 2 -20 -6 -18 -7 2 -19 -10 -27 -25 -9 -18 -19 -26 -28 -23
-9 3 -12 1 -9 -4 3 -6 14 -10 23 -10 14 0 15 -2 2 -9 -8 -6 -18 -7 -22 -5 -4
3 -8 -6 -8 -20 0 -16 -6 -26 -14 -26 -8 0 -18 -5 -21 -11 -4 -6 0 -9 8 -7 9 2
16 -1 16 -7 0 -5 -7 -9 -15 -7 -9 2 -14 -6 -14 -23 0 -18 -5 -25 -20 -25 -16
0 -20 -7 -20 -35 0 -32 -7 -40 -32 -36 -7 1 -12 -57 -11 -106 0 -7 -2 -12 -6
-11 -24 3 -33 -4 -28 -22 5 -18 -4 -25 -26 -21 -5 1 -6 -3 -2 -9 4 -6 2 -16
-3 -23 -5 -7 -8 -20 -7 -29 2 -10 0 -18 -4 -18 -5 0 -6 -12 -4 -28 3 -18 2
-23 -5 -14 -7 10 -12 9 -23 -4 -12 -16 -12 -17 1 -9 12 7 13 6 4 -6 -6 -8 -10
-24 -9 -36 1 -19 -2 -22 -23 -18 -13 2 -21 1 -17 -3 3 -4 12 -7 18 -7 5 0 12
-6 15 -13 2 -8 -3 -12 -14 -10 -15 2 -18 -4 -18 -39 -1 -38 -6 -47 -27 -45 -6
1 -6 0 -13 -68 -3 -32 -8 -45 -19 -44 -10 1 -15 -9 -15 -35 0 -20 -1 -38 -2
-41 -1 -3 -3 -15 -4 -28 -2 -12 -8 -28 -14 -34 -8 -8 -9 -4 -5 13 3 13 2 20
-3 16 -8 -8 -13 -35 -15 -95 -1 -29 -3 -31 -13 -16 -10 13 -15 14 -21 4 -5 -9
-4 -11 3 -6 8 5 12 -1 12 -16 0 -18 -2 -20 -10 -8 -10 16 -10 18 -13 -60 -2
-35 -8 -43 -24 -26 -4 5 -3 7 3 3 6 -3 11 0 11 7 0 25 -23 12 -24 -13 -3 -59
-8 -89 -13 -86 -14 9 -30 -14 -32 -47 -2 -20 -7 -34 -11 -31 -5 3 -6 11 -3 19
3 8 1 14 -4 14 -5 0 -10 -10 -12 -23 -2 -12 -8 -22 -15 -22 -6 0 -15 -3 -19
-7 -3 -4 2 -6 13 -4 12 3 20 -1 20 -10 0 -8 -10 -14 -24 -14 -17 0 -23 -5 -21
-17 2 -10 -5 -19 -20 -22 -13 -3 -23 -10 -22 -16 2 -11 -32 -25 -44 -17 -5 3
-7 -2 -3 -11 3 -10 2 -17 -2 -17 -5 0 -12 6 -14 13 -3 6 -6 3 -6 -8 -1 -18 -8
-20 -55 -20 -39 0 -52 -3 -49 -12 3 -7 10 -10 16 -6 6 4 7 1 3 -6 -5 -7 -10
-10 -13 -7 -3 2 -15 1 -27 -4 -13 -4 -29 -4 -36 0 -9 5 -20 4 -29 -3 -12 -10
-13 -9 -7 1 7 11 4 12 -10 5 -23 -12 -274 -10 -293 2 -10 6 -12 4 -6 -4 6 -10
3 -11 -12 -2 -11 6 -23 7 -27 4 -3 -3 -6 1 -6 10 0 16 -9 19 -67 20 -13 1 -23
6 -23 11 0 6 -5 4 -10 -4 -7 -11 -10 -11 -10 -2 0 8 -5 10 -12 6 -9 -5 -9 -2
1 9 12 15 11 17 -8 17 -11 0 -21 5 -21 11 0 8 -5 7 -16 -1 -13 -11 -16 -10
-21 8 -3 13 -13 22 -24 22 -17 0 -24 11 -20 34 1 5 -5 6 -13 3 -8 -3 -22 1
-33 9 -10 9 -12 13 -5 9 7 -4 12 0 12 9 0 18 -11 21 -26 6 -9 -9 -14 13 -17
77 0 7 -4 10 -8 8 -11 -8 -26 18 -24 42 1 12 -4 24 -11 27 -7 3 -18 15 -24 27
-8 15 -9 19 -1 15 6 -4 11 0 11 9 0 10 5 13 12 9 7 -4 8 -3 4 5 -6 8 -12 9
-20 2 -9 -8 -13 -7 -13 4 0 8 5 15 10 15 6 0 6 5 0 13 -5 6 -9 78 -8 159 0 80
-4 144 -8 141 -4 -3 -15 1 -23 8 -12 10 -12 14 -2 21 11 6 11 10 0 17 -8 4
-13 12 -12 17 1 4 -7 11 -17 15 -10 3 -18 15 -18 25 0 13 -6 18 -19 16 -10 -2
-15 1 -12 6 11 18 -5 40 -25 35 -14 -4 -19 0 -19 13 0 14 3 16 9 6 6 -11 10
-11 19 0 10 13 -11 18 -86 21 -23 1 -25 18 -2 25 8 3 10 0 5 -8 -5 -9 -4 -11
4 -6 27 17 -7 24 -125 25 -119 2 -126 1 -131 -19 -3 -11 -13 -20 -22 -20 -9 0
-23 -6 -30 -12 -11 -10 -13 -10 -7 0 4 7 1 12 -8 12 -19 0 -20 -11 -3 -29 6
-7 8 -12 2 -11 -33 7 -55 -1 -55 -20 0 -13 -7 -20 -20 -20 -16 0 -20 -7 -20
-30 0 -30 -14 -41 -23 -17 -4 12 -6 -5 -10 -78 -1 -19 -6 -35 -12 -35 -5 0 -3
-5 5 -10 13 -9 13 -10 0 -11 -8 -1 -19 -1 -23 0 -5 1 -6 -3 -2 -9 3 -6 10 -8
15 -5 5 3 11 1 15 -5 3 -5 1 -10 -6 -10 -8 0 -8 -4 1 -15 10 -12 10 -15 0 -15
-9 0 -9 -4 1 -17 13 -15 11 -16 -10 -10 l-23 6 21 -20 c24 -22 27 -39 9 -39
-9 0 -8 -4 2 -10 12 -8 12 -10 1 -10 -11 0 -11 -3 0 -17 12 -14 12 -16 -2 -11
-9 4 -16 1 -16 -8 0 -7 4 -11 8 -8 4 2 10 0 14 -6 3 -5 -1 -10 -9 -10 -8 0
-18 -4 -21 -10 -3 -5 0 -7 8 -4 8 3 18 1 22 -5 3 -6 1 -11 -5 -11 -7 0 -8 -6
-2 -17 5 -10 8 -44 8 -76 -1 -31 3 -57 7 -57 4 0 5 -15 2 -34 -4 -18 -3 -36 3
-40 5 -3 7 6 4 22 -3 15 -1 23 4 19 10 -10 13 -28 15 -103 1 -44 5 -61 15 -61
10 0 11 4 3 13 -7 8 -7 14 1 19 5 3 10 5 11 3 5 -21 8 -52 10 -95 1 -29 5 -50
9 -48 14 8 29 -13 32 -42 1 -17 6 -29 10 -27 5 3 5 10 2 16 -4 6 -1 9 7 6 8
-2 15 -21 17 -41 3 -29 7 -37 23 -37 18 0 22 -10 22 -62 0 -10 4 -18 9 -18 6
0 8 7 5 15 -4 8 -1 17 5 21 6 4 8 3 5 -3 -4 -6 0 -16 9 -23 10 -9 11 -15 4
-20 -7 -5 -6 -11 5 -20 13 -10 15 -9 16 6 0 18 1 18 9 -1 12 -29 12 -37 -2
-29 -8 5 -7 1 1 -10 14 -17 16 -17 29 1 9 12 13 13 10 3 -3 -8 2 -21 11 -28 9
-8 10 -10 2 -6 -9 4 -12 2 -9 -7 3 -8 14 -13 26 -11 16 2 20 -1 18 -15 -2 -10
2 -24 10 -31 8 -7 14 -8 14 -3 0 6 7 8 16 4 12 -4 13 -7 3 -14 -8 -4 -10 -11
-6 -15 3 -4 14 -1 24 7 11 9 14 10 9 2 -4 -7 -3 -13 3 -13 6 0 8 -6 5 -14 -3
-8 -1 -17 4 -20 5 -3 9 2 8 11 0 9 5 18 12 20 9 3 12 -2 10 -13 -2 -13 4 -20
20 -22 14 -2 22 -10 22 -23 0 -15 7 -19 35 -19 32 0 40 -7 36 -32 0 -5 17 -8
38 -8 22 0 43 -5 46 -10 3 -6 11 -10 16 -10 6 0 7 5 3 12 -5 7 -3 8 5 3 9 -5
10 -10 2 -18 -9 -9 -17 -8 -34 2 -20 13 -21 13 -8 -2 9 -12 29 -17 62 -17 28
0 49 -5 49 -11 0 -5 -5 -7 -12 -3 -7 5 -8 3 -3 -6 6 -10 11 -9 22 5 12 18 13
17 13 -5 0 -18 3 -21 12 -12 6 6 17 8 27 3 9 -5 31 -8 49 -7 23 1 31 -3 27
-12 -3 -7 -1 -10 4 -7 5 3 12 1 16 -5 4 -6 11 -8 16 -5 5 4 9 1 9 -5 0 -6 5
-8 11 -4 8 4 7 9 -2 15 -7 4 -16 6 -20 3 -4 -2 -11 1 -15 7 -4 8 -3 9 4 5 7
-4 12 -1 12 6 0 10 2 11 8 0 5 -7 16 -10 24 -7 9 4 19 2 23 -4 3 -7 0 -8 -10
-5 -10 4 -14 2 -10 -7 4 -10 27 -14 88 -14 45 1 90 -3 100 -7 11 -6 17 -5 17
3 0 7 8 5 20 -6 17 -15 20 -16 15 -3 -8 21 27 19 37 -2 6 -13 7 -13 7 0 1 13
25 15 154 15 95 -1 155 3 160 10 4 6 10 5 17 -5 8 -12 10 -12 10 -1 0 10 3 11
13 3 8 -7 18 -7 27 -2 13 9 13 10 0 11 -8 1 -18 1 -22 0 -5 0 -8 3 -8 7 0 8
40 13 90 13 39 0 70 11 63 22 -4 7 1 6 10 -2 10 -8 20 -11 24 -7 3 3 1 6 -5 6
-7 0 -12 4 -12 8 0 9 11 11 72 12 21 1 41 6 44 12 4 6 2 8 -4 4 -6 -3 -13 -2
-17 4 -3 6 2 13 12 16 10 3 26 10 37 15 13 7 16 7 11 0 -3 -6 1 -11 9 -11 14
0 20 12 17 33 0 4 16 7 36 7 28 0 34 3 23 10 -13 8 -12 10 3 10 10 0 15 5 12
10 -4 6 5 10 19 10 14 0 25 3 25 8 -3 20 3 32 17 32 9 0 23 8 32 18 10 9 14
13 10 8 -5 -6 -8 -15 -8 -20 0 -6 7 0 16 12 8 12 13 26 10 30 -2 4 -1 14 3 21
6 10 10 9 14 -4 5 -10 3 -14 -5 -9 -7 5 -8 3 -4 -5 8 -12 20 -7 22 10 1 5 3
11 4 14 3 7 7 23 9 36 1 8 6 8 16 -1 12 -10 15 -9 15 5 0 12 5 15 18 11 16 -6
16 -5 -1 8 -15 11 -15 15 -3 19 8 3 17 1 20 -6 2 -7 5 -1 5 11 1 15 9 26 21
29 12 3 20 14 21 29 2 36 3 42 11 50 4 3 6 -3 3 -14 -2 -15 0 -19 11 -15 7 3
11 9 8 14 -2 5 0 17 5 28 8 14 8 21 -2 24 -6 3 -2 6 10 6 27 1 40 20 22 32
-10 6 -11 9 -1 9 6 0 12 7 12 15 0 8 8 15 19 15 15 0 18 7 16 39 -2 26 2 42
11 45 8 3 14 1 14 -3 0 -5 -5 -11 -12 -13 -8 -3 -7 -6 3 -10 9 -3 16 -1 16 5
2 37 16 93 25 102 8 7 8 5 3 -5 -6 -11 -5 -12 4 -4 7 6 14 26 17 45 8 64 12
74 23 72 7 -2 11 13 11 39 0 23 3 38 7 35 3 -4 12 1 19 11 9 13 9 19 1 24 -9
6 -9 8 1 8 8 0 12 15 12 43 0 24 6 51 13 61 12 16 14 16 14 2 0 -9 -4 -16 -9
-16 -4 0 -7 -11 -6 -25 3 -30 2 -29 19 -8 10 11 10 14 2 9 -7 -4 -13 -3 -13 3
0 5 4 11 9 13 6 2 11 27 13 57 2 38 8 56 18 58 12 4 12 3 2 -5 -11 -8 -11 -10
1 -15 10 -4 14 2 15 21 0 71 3 81 20 85 16 4 16 5 0 6 -20 1 -24 16 -6 27 7 4
8 3 4 -4 -4 -7 -2 -10 6 -7 8 3 14 26 16 57 1 29 7 57 13 63 7 7 8 5 4 -6 -3
-9 -1 -16 7 -16 8 0 14 16 15 41 3 53 5 65 12 64 20 -2 27 5 28 25 0 12 1 33
2 47 2 23 3 23 10 5 5 -11 6 -24 3 -29 -3 -5 0 -6 6 -2 6 3 9 15 7 26 -2 11 0
22 5 25 4 3 7 16 5 30 -2 19 3 27 20 31 15 4 21 11 18 23 -3 11 4 21 19 28 18
9 19 12 6 12 -10 1 -18 5 -18 11 0 5 5 9 11 7 12 -2 32 51 24 63 -2 4 2 7 10
7 7 0 12 -8 10 -19 -2 -10 -1 -17 3 -14 4 2 9 19 10 37 3 40 9 50 27 42 11 -4
15 2 15 19 0 13 7 33 16 44 15 19 15 18 5 -2 -7 -15 -7 -21 3 -21 7 0 13 5 13
11 -1 43 5 66 15 63 7 -1 17 8 22 20 8 16 16 21 31 17 16 -4 17 -3 5 5 -10 7
-11 11 -3 11 7 0 12 5 10 12 -2 11 2 13 34 17 8 1 8 5 0 15 -9 10 -8 16 4 26
11 9 15 9 15 1 0 -7 5 -9 11 -6 6 4 8 9 5 13 -3 3 9 16 27 29 17 13 31 27 30
31 -2 4 3 7 9 7 7 0 16 14 19 30 4 17 7 24 8 18 0 -7 8 -13 16 -13 13 0 21 35
17 71 -1 4 9 6 21 5 18 -1 21 4 19 23 -3 16 1 22 10 19 7 -3 12 -12 12 -21 -1
-9 3 -14 8 -11 5 3 8 11 5 18 -4 12 28 48 36 40 2 -3 4 8 3 23 -1 23 3 28 22
27 13 -1 21 3 19 10 -2 6 -1 20 4 31 6 17 8 17 8 3 1 -11 6 -15 16 -12 8 4 12
10 9 15 -3 5 0 17 5 26 6 10 11 14 11 9 0 -5 7 -3 15 4 8 7 12 16 9 21 -3 5 4
9 15 9 14 0 21 6 21 20 0 18 11 25 33 21 5 -1 6 3 2 8 -3 6 -11 9 -18 7 -7 -1
-9 -1 -4 1 4 3 5 9 2 14 -4 5 1 6 9 3 15 -6 22 11 17 39 0 4 8 7 19 7 13 0 20
7 20 20 0 13 7 20 20 20 14 0 20 7 20 22 0 12 3 18 7 15 12 -12 33 15 33 43 0
19 6 29 20 33 13 3 18 10 14 21 -6 15 6 21 29 17 5 -1 6 3 2 9 -3 5 -1 10 4
10 6 0 10 3 10 8 -4 25 4 41 22 47 14 5 19 13 16 26 -4 13 0 19 13 19 10 0 21
7 24 16 4 10 2 13 -7 8 -7 -5 -7 -1 2 10 8 9 20 15 27 12 8 -3 11 2 9 15 -2
10 0 19 6 19 5 0 8 3 8 8 -3 20 2 32 16 32 8 0 14 3 14 8 -4 24 3 75 9 67 9
-12 32 -18 31 -7 -1 4 -1 20 0 35 1 20 5 26 14 21 7 -5 7 -2 -2 10 -12 15 -12
17 0 14 8 -2 17 -7 21 -13 6 -8 12 36 11 82 0 6 6 9 13 6 10 -4 11 -9 4 -18
-7 -8 -6 -12 4 -12 7 0 13 7 13 16 0 48 4 61 18 61 8 0 15 4 15 9 0 15 -18 23
-23 11 -3 -6 -4 -5 -3 2 2 7 9 12 15 11 6 -2 12 2 12 7 1 6 3 15 4 20 1 6 3
19 4 31 1 14 6 19 15 16 17 -7 22 6 21 51 -1 17 2 32 6 32 4 0 6 9 4 20 -2 11
-1 19 3 19 24 -4 29 5 27 41 -2 33 1 40 16 40 11 0 19 3 20 8 0 4 2 32 2 63 1
36 6 56 14 56 7 0 9 -5 6 -10 -3 -6 -1 -7 6 -3 6 4 9 12 6 17 -4 5 -2 9 2 9 5
0 8 12 7 28 -1 15 3 33 9 40 6 8 5 12 -3 12 -8 0 -10 3 -6 8 4 4 13 7 19 7 7
0 13 9 13 20 1 11 3 39 5 63 2 24 7 46 13 49 5 3 6 2 3 -4 -3 -5 0 -10 7 -10
7 0 13 6 13 13 0 7 -3 13 -6 12 -20 -2 -31 3 -26 12 3 5 12 7 21 3 8 -3 14 -2
13 3 -1 5 -1 57 0 117 1 80 4 107 14 107 20 0 21 495 0 515 -17 17 -13 51 6
47 7 -1 10 2 6 8 -3 6 -11 8 -16 5 -5 -4 -9 21 -9 59 0 42 -4 66 -12 69 -10 4
-10 6 0 6 6 1 12 6 12 12 0 13 -26 40 -33 33 -3 -3 -5 1 -4 8 0 7 -1 44 -1 82
-2 56 -5 67 -17 62 -8 -3 -15 -1 -15 4 0 6 7 10 15 10 17 0 19 19 4 40 -9 13
-10 12 -5 -2 3 -10 1 -20 -4 -23 -11 -7 -11 -10 -14 65 -3 47 -6 55 -22 52
-15 -2 -14 0 5 11 20 12 21 15 7 20 -11 5 -15 3 -10 -5 5 -7 3 -8 -5 -4 -7 5
-10 14 -7 22 3 8 2 14 -2 14 -5 0 -8 17 -7 38 2 49 -3 61 -24 57 -14 -2 -17 4
-16 33 0 41 -13 58 -29 36 -9 -11 -11 -6 -10 21 1 20 -1 47 -4 61 -3 19 -7 22
-18 13 -10 -8 -14 -8 -14 -1 0 6 8 16 18 22 15 10 15 10 -3 8 -15 -2 -20 3
-19 20 0 15 -5 22 -18 22 -11 0 -16 5 -13 10 4 6 10 8 15 5 5 -3 11 -1 15 4 3
6 -3 8 -15 6 -13 -3 -20 2 -21 13 -1 9 -2 22 -4 27 -1 6 -3 17 -4 25 -1 13 -2
13 -11 0 -12 -20 -19 -10 -23 30 -1 19 -9 35 -17 37 -13 4 -13 3 0 -6 11 -8
12 -11 2 -11 -8 0 -10 -5 -6 -12 4 -8 3 -10 -2 -5 -10 9 -11 14 -13 52 -1 19
-7 25 -23 25 -19 0 -20 2 -8 10 10 6 11 10 3 10 -7 0 -13 11 -13 25 0 18 -4
23 -15 19 -8 -4 -16 -1 -16 5 -1 6 -2 17 -3 24 0 6 -10 12 -21 12 -21 1 -22
24 -2 38 8 5 7 7 -3 6 -32 -3 -48 2 -54 16 -3 9 0 15 10 15 9 0 12 -5 8 -12
-5 -7 -3 -8 5 -3 15 9 3 23 -24 27 -22 4 -31 16 -19 26 4 4 4 1 0 -5 -5 -9 -2
-11 10 -6 15 5 15 7 0 15 -9 5 -21 6 -26 3 -6 -3 -10 5 -10 19 0 14 -5 26 -11
26 -5 0 -7 -6 -3 -12 5 -9 2 -9 -9 1 -9 7 -17 20 -17 27 0 8 -7 14 -15 14 -8
0 -15 9 -15 20 0 11 -7 20 -15 20 -22 0 -65 22 -60 31 3 4 1 10 -4 14 -6 3 -8
12 -4 20 4 13 -17 21 -49 17 -3 -1 -9 5 -12 13 -3 10 0 12 12 8 12 -4 14 -3 7
5 -9 10 -35 18 -67 21 -4 1 -5 8 -2 16 4 10 0 15 -14 15 -12 0 -24 5 -27 10
-3 6 -1 10 5 10 6 0 8 5 5 10 -3 6 -17 10 -31 10 -17 0 -24 5 -24 20 0 15 -7
20 -29 20 -18 0 -31 6 -35 16 -5 13 -4 14 7 6 10 -9 14 -8 14 3 0 7 -3 14 -6
13 -39 -4 -61 4 -61 22 0 11 -5 20 -11 20 -6 0 -7 -6 -2 -12 4 -7 -5 -5 -19 4
-20 13 -28 14 -31 5 -3 -7 -6 -6 -6 4 -1 9 -9 23 -18 30 -14 12 -15 12 -9 0 6
-9 0 -8 -17 4 -15 9 -30 14 -35 11 -6 -3 -9 2 -8 12 0 10 -6 16 -16 16 -10 -1
-18 2 -18 8 0 5 -6 6 -12 2 -9 -5 -9 -2 1 9 8 10 9 17 3 17 -6 0 -16 -8 -22
-17 -10 -16 -10 -16 -5 3 4 16 0 20 -17 21 -47 3 -66 7 -62 15 3 5 10 6 15 3
5 -4 9 -2 9 3 0 5 -12 10 -27 10 -16 1 -37 4 -48 6 -11 3 -23 5 -27 5 -5 1 -8
7 -8 14 0 9 -12 14 -30 15 -37 1 -53 10 -46 27 3 8 -2 12 -11 11 -9 -2 -39 1
-67 6 -28 5 -56 10 -63 10 -6 1 -9 7 -6 15 5 12 -35 18 -96 16 -9 -1 -10 2 -2
10 15 15 14 24 -4 24 -8 0 -11 -5 -8 -11 3 -6 0 -5 -8 2 -7 6 -30 12 -50 12
-21 0 -40 6 -42 13 -4 10 -6 10 -6 0 -1 -7 -6 -13 -12 -13 -6 0 -9 6 -6 13 4
12 -12 15 -124 21 -25 1 -51 6 -59 11 -8 5 -11 4 -7 -1 3 -6 -8 -9 -26 -8 -18
1 -32 3 -32 4 0 1 -12 3 -27 4 -16 2 -28 -2 -28 -8 0 -6 -5 -5 -12 2 -16 16
-31 15 -22 0 5 -9 3 -9 -9 1 -9 7 -15 17 -12 21 3 5 1 11 -5 15 -5 3 -10 -2
-11 -12 0 -14 -2 -15 -7 -3 -5 12 -26 15 -87 15 -59 0 -83 -4 -93 -15 -11 -13
-11 -13 -7 1 8 21 -34 20 -55 -1 -8 -9 -12 -11 -7 -6 13 18 7 21 -45 21 -31 0
-56 -5 -61 -12 -6 -10 -13 -9 -32 3 -14 9 -25 12 -25 6 0 -11 -31 -9 -50 3 -5
3 -7 0 -4 -8z m828 -55 c3 -5 -1 -9 -9 -9 -8 0 -15 4 -15 9 0 4 4 8 9 8 6 0
12 -4 15 -8z m-1169 -32 c3 -5 1 -10 -4 -10 -6 0 -11 5 -11 10 0 6 2 10 4 10
3 0 8 -4 11 -10z m-121 -46 c3 -8 2 -12 -4 -9 -6 3 -10 10 -10 16 0 14 7 11
14 -7z m816 -533 c0 -3 -20 -6 -45 -7 -25 0 -45 4 -45 8 0 5 14 6 31 3 18 -3
28 -2 25 4 -3 5 3 7 14 4 11 -3 20 -8 20 -12z m-109 -14 c-10 -9 -11 -8 -5 6
3 10 9 15 12 12 3 -3 0 -11 -7 -18z m139 19 c0 -3 -4 -8 -10 -11 -5 -3 -10 -1
-10 4 0 6 5 11 10 11 6 0 10 -2 10 -4z m40 -4 c0 -5 -7 -9 -15 -9 -8 0 -15 4
-15 9 0 4 7 8 15 8 8 0 15 -4 15 -8z m-480 -36 c0 -3 -4 -8 -10 -11 -5 -3 -10
-1 -10 4 0 6 5 11 10 11 6 0 10 -2 10 -4z m1041 -89 c-10 -9 -11 -8 -5 6 3 10
9 15 12 12 3 -3 0 -11 -7 -18z m-1406 -27 c3 -5 1 -10 -4 -10 -6 0 -11 5 -11
10 0 6 2 10 4 10 3 0 8 -4 11 -10z m2259 -666 c3 -8 2 -12 -4 -9 -6 3 -10 10
-10 16 0 14 7 11 14 -7z m746 -8 c0 -2 -7 -7 -16 -10 -8 -3 -12 -2 -9 4 6 10
25 14 25 6z m-650 -142 c0 -8 -19 -13 -24 -6 -3 5 1 9 9 9 8 0 15 -2 15 -3z
m787 -564 c-1 -11 -4 -20 -8 -20 -4 0 -6 11 -5 24 0 13 4 22 8 20 4 -2 6 -13
5 -24z m-1 -55 c1 -14 -2 -25 -6 -25 -6 0 -7 36 -1 48 4 7 6 -1 7 -23z m-2
-321 c3 -8 2 -12 -4 -9 -6 3 -10 10 -10 16 0 14 7 11 14 -7z m3 -44 c1 -11 -2
-20 -7 -20 -6 0 -7 17 -1 38 3 8 7 -1 8 -18z m-27 -254 c0 -2 -7 -7 -16 -10
-8 -3 -12 -2 -9 4 6 10 25 14 25 6z m-47 -170 c4 -10 1 -13 -8 -9 -8 3 -12 9
-9 14 7 12 11 11 17 -5z m-71 -230 c7 4 8 2 4 -5 -9 -13 -26 -5 -25 12 0 9 2
8 6 -1 2 -6 10 -9 15 -6z m-927 -396 c-3 -5 -12 -10 -18 -10 -7 0 -6 4 3 10
19 12 23 12 15 0z m-43 -52 c-7 -7 -12 -8 -12 -2 0 14 12 26 19 19 2 -3 -1
-11 -7 -17z m-102 -142 c0 -2 -7 -9 -15 -16 -13 -11 -14 -10 -9 4 5 14 24 23
24 12z m755 -66 c3 -5 1 -10 -4 -10 -6 0 -11 5 -11 10 0 6 2 10 4 10 3 0 8 -4
11 -10z m-878 -93 c0 -8 -6 -14 -14 -14 -9 0 -10 4 -2 14 6 7 12 13 14 13 1 0
2 -6 2 -13z m693 -187 c0 -5 -8 -10 -17 -10 -15 0 -16 2 -3 10 19 12 20 12 20
0z m-1126 -278 c3 -5 -1 -9 -9 -9 -8 0 -12 4 -9 9 3 4 7 8 9 8 2 0 6 -4 9 -8z
m793 -114 c-3 -8 -6 -5 -6 6 -1 11 2 17 5 13 3 -3 4 -12 1 -19z m-100 -120
c-3 -8 -6 -5 -6 6 -1 11 2 17 5 13 3 -3 4 -12 1 -19z m-37 -28 c0 -5 -5 -10
-11 -10 -5 0 -7 5 -4 10 3 6 8 10 11 10 2 0 4 -4 4 -10z m-1005 -280 c-3 -5
-12 -10 -18 -10 -7 0 -6 4 3 10 19 12 23 12 15 0z m-65 -154 c0 -2 -7 -9 -15
-16 -13 -11 -14 -10 -9 4 5 14 24 23 24 12z m-130 -320 c0 -3 -4 -8 -10 -11
-5 -3 -10 -1 -10 4 0 6 5 11 10 11 6 0 10 -2 10 -4z m-43 -121 c0 -8 -4 -12
-9 -9 -4 3 -8 9 -8 15 0 5 4 9 8 9 5 0 9 -7 9 -15z m-1253 -426 c-3 -5 -10 -7
-15 -3 -5 3 -7 10 -3 15 3 5 10 7 15 3 5 -3 7 -10 3 -15z m311 -228 c3 -5 2
-12 -3 -15 -5 -3 -9 1 -9 9 0 17 3 19 12 6z m-915 -33 c0 -13 -23 -5 -28 10
-2 7 2 10 12 6 9 -3 16 -11 16 -16z m415 -458 c-3 -5 -1 -10 6 -10 7 0 10 -3
6 -6 -9 -9 -28 6 -22 17 4 5 8 9 11 9 3 0 2 -4 -1 -10z"/>
<path d="M4768 6988 c-4 -9 4 -13 28 -14 36 0 45 10 18 20 -8 3 -12 2 -9 -4 8
-13 -8 -13 -22 1 -7 7 -12 6 -15 -3z"/>
<path d="M4236 6982 c-3 -5 1 -9 9 -9 8 0 12 4 9 9 -3 4 -7 8 -9 8 -2 0 -6 -4
-9 -8z"/>
<path d="M4840 6980 c0 -5 7 -7 15 -4 8 4 15 8 15 10 0 2 -7 4 -15 4 -8 0 -15
-4 -15 -10z"/>
<path d="M3875 6909 c-4 -6 -5 -12 -2 -15 2 -3 7 2 10 11 7 17 1 20 -8 4z"/>
<path d="M5360 6868 c0 -6 6 -8 14 -5 7 3 18 1 23 -4 6 -6 15 -3 24 8 12 16
12 17 -2 6 -9 -7 -19 -10 -23 -6 -11 11 -36 12 -36 1z"/>
<path d="M5510 6819 c0 -5 5 -7 10 -4 6 3 10 8 10 11 0 2 -4 4 -10 4 -5 0 -10
-5 -10 -11z"/>
<path d="M5585 6791 c-6 -11 9 -23 19 -14 9 9 7 23 -3 23 -6 0 -12 -4 -16 -9z"/>
<path d="M3480 6750 c-9 -6 -10 -10 -3 -10 6 0 15 5 18 10 8 12 4 12 -15 0z"/>
<path d="M5820 6681 c0 -10 19 -25 25 -20 1 2 -3 10 -11 17 -8 7 -14 8 -14 3z"/>
<path d="M6173 6435 c0 -8 4 -12 9 -9 5 3 6 10 3 15 -9 13 -12 11 -12 -6z"/>
<path d="M6290 6326 c0 -9 5 -16 10 -16 6 0 10 4 10 9 0 6 -4 13 -10 16 -5 3
-10 -1 -10 -9z"/>
<path d="M4900 6276 c0 -2 7 -9 15 -16 9 -7 15 -8 15 -2 0 5 -7 12 -15 16 -8
3 -15 4 -15 2z"/>
<path d="M5301 6154 c0 -11 3 -14 6 -6 3 7 2 16 -1 19 -3 4 -6 -2 -5 -13z"/>
<path d="M5385 6120 c-3 -5 -1 -10 4 -10 6 0 11 5 11 10 0 6 -2 10 -4 10 -3 0
-8 -4 -11 -10z"/>
<path d="M2615 5920 c3 -5 8 -10 11 -10 2 0 4 5 4 10 0 6 -5 10 -11 10 -5 0
-7 -4 -4 -10z"/>
<path d="M6790 5620 c0 -5 5 -10 11 -10 5 0 7 5 4 10 -3 6 -8 10 -11 10 -2 0
-4 -4 -4 -10z"/>
<path d="M6122 5421 c-11 -7 -11 -9 0 -14 9 -3 15 1 15 9 0 8 -1 14 -1 14 -1
0 -7 -4 -14 -9z"/>
<path d="M4580 5323 c0 -7 -7 -10 -17 -6 -10 3 -15 2 -10 -2 11 -12 117 -14
124 -2 3 6 1 7 -5 3 -6 -3 -13 -2 -17 4 -4 7 -14 6 -28 -2 -26 -14 -27 -14
-38 4 -6 9 -9 10 -9 1z"/>
<path d="M4519 5301 c-3 -9 -26 -14 -72 -15 -37 0 -67 -4 -67 -8 0 -4 -8 -5
-17 -2 -14 5 -15 4 -4 -4 23 -16 5 -29 -39 -27 -23 1 -43 -2 -46 -7 -3 -5 -10
-6 -15 -2 -6 3 -9 -2 -7 -12 2 -14 -4 -18 -32 -20 -50 -3 -50 -3 -47 -16 1 -8
-8 -13 -20 -12 -13 0 -23 -3 -23 -7 0 -4 -9 -6 -20 -4 -11 2 -19 1 -19 -3 3
-22 -3 -32 -20 -32 -10 0 -25 -7 -32 -17 -13 -15 -12 -15 11 -4 24 11 24 11 6
-3 -11 -9 -32 -16 -47 -16 -15 0 -29 -6 -32 -14 -4 -10 1 -13 16 -10 21 4 21
4 2 -5 -11 -5 -30 -10 -43 -10 -13 -1 -20 -5 -17 -11 3 -5 -2 -10 -12 -10 -15
0 -16 -2 -3 -10 12 -8 10 -10 -10 -11 -14 -1 -29 -1 -33 0 -5 1 -6 -3 -2 -9 3
-6 11 -7 17 -4 7 5 8 2 4 -5 -5 -7 -13 -10 -20 -8 -14 6 -37 -18 -28 -29 4 -5
-1 -2 -10 5 -16 12 -18 11 -18 -8 0 -24 -10 -27 -29 -8 -7 6 -12 8 -11 2 2 -5
2 -20 1 -33 -1 -19 -5 -22 -21 -17 -19 6 -25 -2 -21 -32 1 -8 -5 -10 -14 -7
-13 6 -16 1 -14 -23 0 -5 -10 -11 -23 -14 -14 -3 -22 -12 -20 -21 2 -11 -6
-18 -20 -20 -15 -2 -22 -9 -20 -20 2 -12 -4 -18 -18 -18 -11 0 -20 -5 -20 -11
0 -6 9 -8 21 -4 15 5 19 4 15 -4 -4 -6 -16 -11 -27 -11 -11 0 -19 -6 -18 -12
3 -27 -2 -38 -16 -38 -9 0 -15 -9 -15 -25 0 -25 -20 -37 -20 -12 -1 26 -19
-21 -22 -56 -2 -31 -4 -34 -20 -26 -16 9 -18 5 -18 -35 0 -54 -8 -76 -26 -76
-9 0 -14 -12 -14 -35 0 -34 -15 -73 -34 -86 -5 -4 1 -10 13 -14 21 -6 29 -25
11 -25 -5 0 -10 5 -10 10 0 19 -16 10 -17 -10 -1 -13 2 -18 10 -13 8 5 8 2 -1
-9 -8 -11 -11 -53 -10 -147 2 -116 4 -132 20 -137 14 -4 18 -16 18 -60 0 -33
4 -54 11 -54 8 0 7 -6 -2 -17 -10 -14 -8 -13 9 2 13 11 23 15 22 10 -2 -6 -2
-33 -1 -61 1 -37 6 -54 17 -58 8 -3 12 -2 9 4 -3 6 -1 10 4 10 6 0 11 -9 11
-21 0 -13 -4 -18 -12 -13 -10 6 -10 4 0 -7 6 -7 12 -26 12 -41 0 -16 6 -28 13
-28 8 0 7 -4 -3 -10 -12 -8 -11 -10 6 -10 20 0 25 -19 27 -100 0 -8 8 -27 18
-41 10 -14 18 -37 17 -50 -2 -46 1 -53 16 -39 12 9 15 8 15 -7 0 -17 5 -70 13
-141 2 -17 10 -38 17 -45 11 -10 12 -8 3 9 -7 14 -7 25 0 35 8 12 9 11 5 -2
-3 -9 -1 -22 3 -30 5 -8 4 -19 -2 -27 -9 -10 -8 -16 2 -22 11 -7 11 -11 1 -24
-8 -9 -9 -16 -4 -16 12 0 11 -120 -2 -121 -5 -1 -14 0 -20 1 -5 1 -6 -2 -2 -7
5 -4 13 -8 18 -8 5 0 9 -3 9 -7 0 -5 0 -12 0 -17 0 -6 -9 -8 -21 -6 -16 3 -18
1 -10 -8 6 -8 7 -26 2 -47 -4 -19 -8 -38 -9 -42 -1 -5 -2 -17 -2 -27 0 -10 -7
-22 -16 -25 -14 -5 -15 -4 -4 9 9 11 10 19 3 26 -10 10 -11 5 -15 -46 -2 -23
-10 -29 -30 -26 -5 0 -8 -8 -8 -19 0 -13 -7 -20 -20 -20 -13 0 -20 -7 -20 -20
0 -13 -7 -20 -20 -20 -13 0 -20 -7 -20 -18 0 -16 -13 -21 -67 -25 -7 0 -12 -3
-11 -6 2 -21 -5 -30 -24 -33 -14 -2 -23 -10 -22 -19 1 -11 -8 -16 -25 -17 -44
-2 -76 -11 -86 -25 -5 -8 -15 -12 -22 -10 -6 2 -14 -1 -18 -7 -5 -8 -11 -7
-23 2 -13 11 -15 10 -10 -10 6 -21 -1 -26 -29 -23 -8 1 -13 -9 -13 -24 0 -22
-3 -24 -19 -16 -18 10 -19 7 -18 -57 2 -50 5 -67 16 -67 8 0 16 -7 18 -15 3
-9 1 -11 -4 -5 -11 14 -33 17 -33 5 0 -6 11 -15 25 -20 16 -6 23 -14 19 -25
-5 -12 4 -15 51 -15 53 0 56 -1 44 -17 -12 -16 -12 -17 2 -6 9 7 20 9 24 5 5
-4 5 -1 1 6 -5 9 5 12 39 12 28 0 44 4 40 10 -3 6 -2 10 4 10 5 0 12 -6 14
-12 3 -7 6 -3 6 10 1 19 6 22 41 22 33 0 40 3 40 20 0 17 7 20 40 20 33 0 40
3 40 20 0 16 7 20 33 21 17 1 35 1 39 0 4 0 5 6 2 14 -4 8 -1 16 5 16 6 1 17
2 24 3 6 1 12 11 11 23 0 17 3 20 16 13 20 -11 30 -4 30 21 0 9 7 19 15 23 13
5 14 2 5 -17 -10 -20 -9 -19 9 3 10 13 17 29 14 35 -2 5 3 1 12 -10 l17 -20
-2 20 c-1 11 -1 23 0 28 1 4 3 12 4 19 0 6 7 12 14 14 7 1 8 0 2 -3 -11 -5 -4
-23 8 -23 7 0 11 17 14 58 2 16 20 10 26 -8 3 -8 0 -10 -8 -5 -9 5 -11 4 -6
-4 12 -18 23 -4 24 31 0 18 6 34 12 36 7 3 7 9 -2 20 -8 11 -4 9 11 -3 17 -15
22 -16 21 -5 -5 33 1 70 11 70 5 0 7 -6 3 -12 -5 -9 -2 -9 9 1 9 7 17 27 17
44 0 18 10 42 23 56 12 14 14 19 4 12 -9 -8 -20 -11 -24 -7 -4 3 2 12 11 19
14 10 19 28 20 75 0 34 5 62 10 62 5 0 2 8 -5 17 -10 11 -10 14 -1 9 6 -4 12
-2 12 3 0 6 -6 11 -12 11 -9 0 -8 4 2 10 8 5 11 10 5 10 -6 0 -10 44 -10 113
0 101 -2 113 -20 125 -19 12 -19 13 2 7 18 -5 22 -3 17 10 -4 9 -12 14 -19 12
-8 -4 -11 12 -11 53 1 32 4 62 8 66 4 3 5 -3 3 -15 -2 -12 0 -19 6 -16 5 4 9
13 9 21 0 8 10 14 25 14 19 0 25 5 26 23 1 16 2 18 6 5 4 -16 6 -16 20 -2 9 8
22 13 29 10 8 -3 14 -1 14 4 0 6 -7 10 -15 10 -8 0 -15 5 -15 10 0 10 13 14
36 11 16 -2 35 23 37 49 1 19 3 19 13 5 11 -14 12 -14 18 1 3 8 6 27 6 40 0
17 6 24 20 24 13 0 20 7 20 20 0 17 10 24 31 22 4 -1 6 7 6 16 0 96 3 114 23
119 18 5 20 14 21 102 1 53 1 99 1 102 -1 3 -2 47 -3 98 -1 50 -4 89 -7 87
-12 -12 -32 26 -34 64 -1 25 -4 36 -10 28 -4 -7 -8 -8 -8 -2 0 18 -41 55 -52
48 -6 -4 -8 -3 -5 3 4 6 0 19 -8 29 -8 10 -14 24 -15 29 0 6 5 3 10 -5 8 -13
10 -12 10 3 0 10 -8 17 -20 17 -13 0 -20 7 -20 20 0 13 -7 20 -20 20 -11 0
-19 3 -19 8 4 22 -3 32 -21 32 -11 0 -20 7 -20 15 0 8 -5 15 -11 15 -5 0 -8
-4 -4 -9 3 -5 1 -13 -5 -16 -6 -4 -10 -3 -9 2 3 17 -1 33 -8 32 -27 -4 -42 3
-38 19 2 11 -3 19 -11 19 -8 0 -14 -5 -15 -11 0 -6 -4 -2 -9 9 -5 11 -9 15 -9
8 -1 -7 -8 -10 -16 -7 -10 4 -14 17 -12 39 1 18 4 32 7 30 12 -7 42 24 34 36
-4 8 -3 10 4 5 13 -8 48 8 45 20 -1 4 -7 10 -15 15 -9 6 -7 8 7 8 51 1 54 3
43 25 -8 17 -8 19 2 9 10 -9 16 -9 27 2 7 8 19 13 26 11 7 -1 9 -1 5 1 -13 8
4 33 23 33 12 0 19 7 19 20 0 19 25 27 69 20 11 -1 10 2 -3 15 -21 22 -21 22
19 20 28 -2 35 2 35 16 0 18 7 21 57 22 12 1 21 3 21 6 -2 24 4 41 12 36 6 -4
17 -1 25 5 12 10 15 10 15 0 0 -10 3 -10 15 0 8 6 20 8 26 4 8 -5 9 -3 5 5 -5
7 -15 10 -25 6 -12 -5 -13 -4 -4 6 7 7 29 13 50 14 24 1 38 6 38 15 0 18 18
20 185 19 187 -1 200 -2 194 -10 -7 -12 18 -23 61 -26 62 -5 65 -6 65 -15 0
-5 -10 -7 -22 -3 -22 6 -22 5 -3 -7 20 -12 25 -14 58 -16 9 -1 17 -7 17 -13 0
-5 -5 -7 -12 -3 -7 5 -8 3 -4 -5 5 -7 11 -10 14 -7 3 3 14 -2 25 -11 13 -11
17 -12 12 -4 -6 11 -4 13 9 8 10 -4 20 -7 22 -7 2 0 4 -9 4 -19 0 -14 6 -19
18 -16 10 2 25 -1 33 -6 10 -6 10 -9 2 -9 -7 0 -13 -4 -13 -8 0 -8 14 -12 52
-13 10 0 15 -7 13 -17 -4 -26 13 -62 30 -62 8 0 15 -9 15 -20 0 -13 7 -20 20
-20 14 0 20 -7 21 -22 1 -13 2 -27 4 -33 1 -5 3 -16 3 -23 1 -7 7 -10 13 -6 8
4 7 9 -2 15 -11 7 -11 9 -1 9 17 0 22 -15 25 -80 2 -30 7 -53 12 -52 14 6 20
-15 20 -75 -1 -40 4 -62 15 -71 8 -8 10 -11 3 -8 -6 4 -14 2 -18 -4 -5 -9 6
-14 26 -12 3 0 5 -19 5 -43 0 -24 -3 -42 -7 -40 -3 3 -5 18 -3 34 2 17 -2 33
-8 37 -7 5 -9 2 -5 -8 3 -9 0 -21 -6 -28 -9 -10 -9 -11 2 -5 11 6 13 4 7 -11
-11 -26 -14 -84 -4 -84 4 0 4 -10 -1 -22 -4 -13 -8 -35 -7 -51 1 -19 -2 -26
-12 -22 -7 2 -11 1 -7 -4 3 -5 2 -11 -2 -14 -5 -2 -3 -3 4 -1 12 3 12 -21 -2
-33 -4 -4 -5 -2 0 6 5 9 4 12 -3 7 -7 -4 -12 -23 -12 -41 0 -25 -4 -33 -14
-29 -8 3 -17 1 -21 -5 -3 -6 0 -9 8 -5 8 3 18 1 22 -5 3 -6 1 -11 -5 -11 -6 0
-8 -5 -4 -12 6 -10 3 -9 -8 0 -15 12 -17 9 -20 -25 -2 -28 -7 -38 -19 -37 -9
1 -16 -6 -16 -15 0 -44 -4 -61 -14 -61 -5 0 -7 6 -4 13 4 6 -1 3 -9 -7 -9 -11
-16 -26 -16 -33 0 -7 -8 -13 -17 -13 -15 0 -16 -2 -3 -10 13 -9 13 -10 0 -10
-9 0 -16 -10 -17 -21 -1 -12 -7 -27 -14 -33 -9 -8 -10 -8 -6 0 4 7 1 14 -6 17
-9 3 -12 -5 -12 -29 1 -29 -2 -34 -21 -34 -18 0 -22 -5 -19 -20 2 -12 -1 -20
-8 -19 -26 3 -35 -2 -33 -18 0 -10 -5 -18 -11 -19 -7 -1 -17 -2 -22 -3 -5 0
-7 -10 -4 -22 5 -16 2 -20 -13 -17 -15 2 -20 -4 -22 -29 -2 -18 -8 -33 -13
-33 -6 0 -7 5 -4 10 3 6 -1 10 -9 10 -12 0 -16 -11 -16 -46 0 -33 -3 -43 -12
-38 -10 6 -10 4 0 -7 6 -7 12 -34 12 -59 0 -46 0 -46 35 -45 19 1 32 -2 29 -7
-3 -4 -12 -8 -20 -8 -8 0 -13 -4 -9 -9 3 -6 47 -9 97 -8 72 2 92 5 95 17 4 13
3 13 -6 0 -10 -13 -11 -13 -11 0 0 13 -1 13 -11 0 -8 -12 -10 -12 -7 -1 4 14
26 22 59 22 9 0 16 7 16 14 0 8 -5 11 -10 8 -6 -3 -7 -1 -3 5 4 7 19 12 34 13
26 0 26 1 5 9 -29 12 -30 20 -3 13 14 -4 20 -1 18 8 -2 8 7 15 20 17 12 2 22
7 22 12 0 5 -10 7 -21 5 -12 -3 -18 -1 -15 3 4 4 12 8 17 8 5 1 13 2 19 3 5 0
7 9 3 19 -6 15 -4 15 18 -3 13 -11 19 -13 12 -6 -9 11 -8 17 3 29 8 8 13 20
10 27 -2 7 3 12 12 11 10 -1 16 5 14 15 -1 9 5 23 15 30 11 9 14 10 9 2 -4 -8
-2 -13 5 -13 6 0 9 8 6 20 -3 11 -1 18 4 14 5 -3 9 6 9 20 0 14 3 25 8 25 22
-4 32 4 32 25 0 19 4 23 19 19 16 -4 18 0 13 23 -3 17 -1 25 5 21 6 -4 16 0
23 8 11 13 10 14 -4 9 -9 -3 -16 -1 -16 5 0 6 9 11 20 11 11 0 19 3 19 8 -5
27 3 72 11 67 5 -3 7 -12 3 -20 -3 -8 -1 -15 4 -15 5 0 10 6 10 13 1 6 2 34 4
60 1 27 6 43 10 35 4 -6 5 -16 3 -20 -3 -4 3 -5 12 -1 11 4 13 8 6 11 -7 2
-12 8 -12 13 0 6 5 7 10 4 6 -3 10 4 11 17 2 39 6 83 9 88 1 3 2 8 1 12 0 4 6
5 14 2 15 -6 19 31 18 169 0 28 3 37 15 35 8 -2 17 3 19 10 3 7 -1 10 -10 6
-8 -3 -18 -1 -21 4 -3 5 2 9 11 8 10 0 19 7 21 18 3 13 0 16 -10 10 -11 -6
-11 -5 0 8 13 16 15 115 2 123 -4 2 -6 -7 -4 -20 1 -17 -3 -25 -14 -25 -12 0
-13 3 -4 12 13 13 17 32 5 25 -5 -3 -9 11 -10 31 -1 20 3 40 10 44 9 6 9 8 0
8 -9 0 -13 19 -13 61 0 45 -3 58 -12 53 -9 -5 -9 -2 1 9 15 19 1 23 -17 5 -7
-7 -12 -8 -12 -2 0 6 10 16 23 22 20 10 20 11 2 9 -17 -2 -20 5 -23 41 -2 32
-7 42 -19 40 -9 -2 -18 3 -20 10 -3 6 0 12 7 12 6 0 8 -4 5 -10 -10 -16 1 -12
15 6 8 8 9 14 4 13 -24 -4 -34 3 -34 27 0 14 -4 23 -9 19 -5 -3 -12 -1 -15 4
-4 5 -1 13 5 17 8 5 9 3 4 -6 -5 -9 -4 -11 3 -6 18 11 14 27 -5 24 -14 -2 -17
3 -15 21 2 19 -2 22 -18 18 -11 -3 -18 -1 -14 4 3 5 -1 9 -8 9 -9 0 -9 3 2 10
11 7 11 10 2 10 -7 0 -11 4 -8 9 4 5 -4 7 -16 4 -20 -4 -21 -3 -5 7 24 15 21
29 -5 22 -14 -3 -19 -2 -14 6 4 7 3 12 -3 12 -6 0 -8 7 -4 16 5 13 2 15 -14
10 -14 -4 -23 -1 -27 9 -3 9 -2 13 4 10 6 -3 10 -1 10 4 0 6 -12 11 -26 11
-21 0 -25 4 -21 20 4 15 0 20 -14 20 -12 0 -19 7 -19 20 0 11 -5 20 -11 20 -5
0 -7 -6 -3 -12 4 -7 -1 -6 -12 3 -10 9 -26 15 -35 14 -9 -2 -16 3 -16 11 0 10
4 11 13 3 8 -7 14 -7 19 1 3 5 4 11 1 11 -3 1 -10 3 -16 4 -5 1 -22 3 -36 4
-21 1 -25 5 -21 21 5 18 0 20 -39 20 -24 0 -43 3 -43 8 4 21 -5 27 -44 29 -26
2 -48 9 -57 20 -8 10 -22 18 -30 18 -8 0 -18 4 -22 10 -5 6 -8 4 -8 -5 0 -10
-5 -7 -16 8 -8 12 -19 20 -24 17 -4 -3 -11 0 -13 5 -3 6 -4 5 -3 -2 2 -7 9
-13 16 -13 7 0 15 -7 17 -15 4 -12 3 -12 -5 -2 -5 8 -12 13 -16 13 -19 -3 -26
0 -26 12 0 8 -21 12 -73 12 -54 0 -74 4 -79 15 -5 12 -7 12 -7 -2 -1 -10 -7
-15 -14 -12 -25 9 -118 10 -123 2 -3 -5 -12 -4 -20 3 -11 9 -14 8 -15 -2 0 -8
-4 -5 -8 6 -5 13 -9 15 -12 6z m-109 -39 c0 -5 -7 -9 -15 -9 -8 0 -15 4 -15 9
0 4 7 8 15 8 8 0 15 -4 15 -8z m-120 -36 c0 -3 -4 -8 -10 -11 -5 -3 -10 -1
-10 4 0 6 5 11 10 11 6 0 10 -2 10 -4z m-166 -87 c-3 -5 -10 -7 -15 -3 -5 3
-7 10 -3 15 3 5 10 7 15 3 5 -3 7 -10 3 -15z m900 -215 c3 -8 2 -12 -4 -9 -6
3 -10 10 -10 16 0 14 7 11 14 -7z m191 -173 c-6 -5 -25 10 -25 20 0 5 6 4 14
-3 8 -7 12 -15 11 -17z m111 -216 c-1 -8 -5 -17 -8 -21 -5 -4 -4 16 1 34 3 9
9 -1 7 -13z m-1904 -227 c-8 -8 -9 -4 -5 13 4 13 8 18 11 10 2 -7 -1 -18 -6
-23z m1943 -76 c-3 -3 -11 0 -18 7 -9 10 -8 11 6 5 10 -3 15 -9 12 -12z
m-1135 -73 c0 -5 -4 -9 -10 -9 -5 0 -10 7 -10 16 0 8 5 12 10 9 6 -3 10 -10
10 -16z m-804 -129 c0 -12 -4 -16 -9 -11 -5 5 -6 14 -3 20 10 15 12 14 12 -9z
m0 -47 c-10 -11 -19 -7 -22 10 -2 15 0 16 12 6 8 -6 12 -14 10 -16z m74 -223
c0 -5 -5 -10 -11 -10 -5 0 -7 5 -4 10 3 6 8 10 11 10 2 0 4 -4 4 -10z m694
-91 c-3 -5 -10 -7 -15 -3 -5 3 -7 10 -3 15 3 5 10 7 15 3 5 -3 7 -10 3 -15z
m-76 -114 c-3 -3 -9 2 -12 12 -6 14 -5 15 5 6 7 -7 10 -15 7 -18z m-535 -61
c-3 -8 -10 -11 -16 -7 -8 5 -7 8 1 11 9 3 9 9 1 25 -9 21 -9 21 5 4 8 -11 12
-25 9 -33z m18 -97 c-10 -9 -11 -8 -5 6 3 10 9 15 12 12 3 -3 0 -11 -7 -18z
m62 -483 c-7 -19 -10 -18 -16 5 -3 13 -1 18 9 14 7 -2 10 -11 7 -19z m-233
-292 c0 -13 -12 -22 -22 -16 -10 6 -1 24 13 24 5 0 9 -4 9 -8z m-160 -88 c0
-8 -19 -13 -24 -6 -3 5 1 9 9 9 8 0 15 -2 15 -3z"/>
<path d="M5005 5241 c-3 -5 -1 -12 5 -16 5 -3 10 1 10 9 0 18 -6 21 -15 7z"/>
<path d="M6951 5078 c5 -10 11 -18 12 -18 2 0 3 8 3 18 0 10 -6 19 -13 19 -8
0 -9 -6 -2 -19z"/>
<path d="M4456 4988 c3 -4 9 -8 15 -8 5 0 9 4 9 8 0 5 -7 9 -15 9 -8 0 -12 -4
-9 -9z"/>
<path d="M4796 4991 c-4 -5 -2 -12 3 -15 5 -4 12 -2 15 3 4 5 2 12 -3 15 -5 4
-12 2 -15 -3z"/>
<path d="M6276 4921 c-3 -5 2 -15 12 -22 15 -13 16 -12 4 3 -10 13 -10 17 0
21 9 4 9 6 1 6 -6 1 -14 -3 -17 -8z"/>
<path d="M5150 4789 c0 -5 5 -7 10 -4 6 3 10 8 10 11 0 2 -4 4 -10 4 -5 0 -10
-5 -10 -11z"/>
<path d="M1018 4773 c6 -3 10 -8 8 -12 -6 -9 61 -8 70 2 4 4 1 7 -7 8 -8 0
-30 2 -49 4 -19 1 -29 1 -22 -2z"/>
<path d="M1115 4762 c3 -15 -7 -17 -81 -18 -55 -1 -89 -6 -101 -15 -11 -9 -14
-10 -9 -1 4 6 3 12 -2 12 -6 0 -13 -7 -16 -16 -3 -8 -2 -12 4 -9 6 3 10 1 10
-4 0 -6 -13 -11 -29 -11 -25 0 -29 -4 -26 -21 3 -16 0 -19 -14 -14 -15 4 -20
-2 -26 -32 -5 -22 -10 -31 -12 -21 -8 34 -28 7 -28 -36 0 -35 -3 -42 -13 -34
-17 15 -23 7 -25 -36 -1 -24 -6 -35 -14 -32 -7 3 -15 1 -18 -4 -3 -5 3 -11 12
-13 17 -4 17 -5 1 -6 -13 -1 -18 -10 -18 -30 0 -17 -5 -33 -10 -36 -8 -5 -7
-11 1 -21 9 -11 7 -14 -12 -14 -19 0 -21 -2 -9 -10 13 -9 13 -10 0 -10 -12 0
-13 -2 -1 -9 8 -5 9 -10 2 -12 -6 -2 -12 -34 -13 -71 -2 -63 -4 -68 -23 -62
-18 6 -19 5 -5 -11 9 -11 10 -16 3 -11 -10 5 -13 -12 -14 -76 -1 -46 -1 -90 0
-98 2 -13 1 -13 -8 0 -5 8 -7 19 -4 25 3 5 0 4 -7 -2 -17 -16 -22 -45 -7 -37
8 5 7 2 0 -7 -8 -8 -13 -42 -13 -89 0 -52 -3 -70 -10 -60 -8 13 -10 12 -10 -2
0 -10 3 -18 8 -18 4 0 8 -13 8 -30 1 -16 -2 -30 -7 -30 -4 0 -6 9 -4 20 2 11
-1 23 -7 26 -6 4 -8 2 -4 -4 3 -6 3 -13 -1 -15 -5 -3 -8 -36 -8 -74 0 -60 -3
-70 -24 -88 -23 -18 -41 -19 -212 -20 -104 0 -191 -4 -194 -7 -4 -4 -13 -4
-20 -2 -7 3 -15 -2 -19 -12 -5 -14 -4 -15 8 -5 11 9 16 9 22 -1 4 -7 4 -10 -1
-6 -4 4 -14 3 -21 -3 -8 -6 -21 -9 -29 -5 -17 6 -17 7 -19 -54 -3 -62 -15 -97
-28 -79 -8 12 -9 11 -5 -1 2 -8 11 -14 19 -14 8 1 15 -5 15 -12 0 -8 -5 -14
-11 -14 -6 -1 2 -8 17 -16 15 -8 25 -20 21 -26 -4 -7 -10 -6 -16 3 -8 12 -9
12 -6 0 6 -20 22 -21 307 -24 216 -2 255 -4 258 -17 3 -9 1 -11 -4 -5 -9 12
-184 15 -177 4 2 -4 -4 -6 -13 -4 -10 2 -18 4 -18 5 0 1 -67 3 -150 4 -82 1
-142 0 -132 -2 9 -2 15 -7 13 -10 -2 -4 67 -7 155 -7 87 0 159 3 159 8 0 4 6
5 13 0 6 -4 47 -8 90 -8 67 0 77 2 77 17 0 10 7 18 15 18 8 0 15 -8 15 -17 0
-15 -2 -16 -10 -3 -6 9 -10 10 -10 3 0 -22 21 -25 27 -4 3 12 13 21 23 21 29
0 50 11 44 22 -4 6 -10 5 -15 -3 -7 -11 -9 -10 -9 5 0 12 5 16 15 12 19 -7 41
30 22 37 -6 3 -2 6 10 6 27 1 40 20 22 32 -10 6 -11 9 -1 9 6 0 12 12 12 26 0
21 3 24 14 15 11 -9 15 -8 20 6 4 10 2 19 -3 21 -6 2 -8 9 -4 15 9 14 9 19 11
71 2 30 5 37 18 32 8 -3 12 -2 9 4 -3 6 -1 10 5 10 7 0 6 5 -2 14 -7 8 -17 11
-23 8 -6 -3 -6 -1 -2 4 5 5 14 9 20 9 6 0 11 28 12 71 1 40 5 76 9 82 3 6 2
12 -3 14 -5 1 -2 10 7 18 14 13 15 13 10 -1 -4 -9 -1 -16 7 -16 10 0 11 6 2
24 -8 18 -13 21 -26 12 -9 -6 -3 1 13 16 24 21 26 29 15 36 -8 5 -9 9 -4 9 6
0 11 25 12 55 2 57 9 79 22 71 4 -3 7 5 8 17 5 161 8 185 21 180 11 -5 11 -7
0 -15 -10 -8 -10 -9 2 -5 8 2 17 12 18 22 2 10 0 15 -6 11 -6 -3 -14 -1 -18 5
-4 8 -3 9 5 5 14 -9 26 26 30 92 1 6 6 12 12 12 5 0 7 -4 4 -10 -3 -5 -1 -10
5 -10 6 0 10 8 9 18 -5 50 1 60 36 64 26 3 34 1 31 -9 -3 -7 -2 -13 3 -13 5 0
7 -18 6 -40 -2 -22 1 -40 7 -40 5 0 6 -4 3 -10 -3 -5 1 -10 9 -10 13 0 16 -13
17 -62 3 -136 4 -157 11 -163 4 -4 3 -15 -2 -25 -12 -23 -5 -56 11 -52 8 1 5
-5 -6 -13 -17 -13 -17 -17 -6 -25 12 -7 12 -11 2 -24 -11 -12 -11 -16 -1 -16
10 0 10 -4 -1 -16 -10 -13 -10 -17 2 -25 12 -8 12 -10 -1 -20 -11 -8 -12 -12
-3 -16 8 -3 10 -11 5 -21 -9 -20 -8 -174 1 -190 4 -5 1 -13 -5 -16 -10 -5 -10
-7 -1 -12 8 -3 10 -12 5 -22 -13 -27 -8 -67 8 -64 10 1 8 -3 -5 -13 -17 -13
-17 -17 -6 -25 12 -7 12 -11 2 -24 -11 -12 -11 -16 -1 -16 10 0 10 -4 -1 -16
-10 -13 -10 -17 2 -25 12 -8 12 -10 -1 -20 -11 -8 -12 -12 -3 -16 8 -3 10 -11
5 -21 -4 -9 -7 -64 -6 -122 0 -85 3 -105 15 -102 8 1 6 -4 -6 -13 -17 -13 -17
-17 -6 -25 12 -7 12 -11 2 -24 -11 -12 -11 -16 -1 -16 10 0 10 -4 -1 -16 -10
-13 -10 -17 2 -25 8 -5 9 -9 2 -9 -6 0 -10 -8 -8 -17 1 -10 9 -17 16 -15 8 1
5 -5 -6 -13 -17 -13 -17 -17 -6 -25 12 -7 12 -11 2 -24 -11 -12 -11 -16 -1
-16 10 0 10 -4 -1 -16 -10 -13 -10 -17 2 -25 9 -5 10 -9 2 -9 -11 0 -10 -30 2
-49 3 -5 1 -12 -4 -16 -6 -3 -7 -15 -1 -29 5 -13 5 -27 0 -32 -5 -5 -3 -17 5
-28 13 -17 14 -16 11 18 -2 20 0 36 4 36 7 0 9 -26 14 -187 0 -29 4 -53 8 -53
4 0 5 -7 2 -15 -5 -11 -2 -13 10 -9 16 6 22 -18 18 -68 -1 -12 5 -18 18 -18
11 0 20 -6 21 -12 2 -40 9 -72 18 -81 7 -7 8 -3 4 12 -3 11 -1 21 4 21 5 0 10
-8 11 -17 5 -44 10 -58 20 -59 7 -1 23 -2 37 -3 18 -1 25 -7 25 -21 0 -23 10
-25 29 -7 11 10 12 9 6 -1 -6 -11 13 -13 98 -11 95 3 105 4 102 21 -4 18 13
23 58 19 19 -2 23 14 5 25 -7 4 -8 3 -4 -4 4 -7 3 -12 -2 -12 -6 0 -12 6 -15
14 -3 8 1 13 11 13 35 0 40 4 35 26 -4 21 -4 21 12 -3 l15 -25 -2 25 c-2 17 1
24 11 22 12 -3 12 0 1 13 -7 8 -10 18 -6 22 3 3 6 1 6 -5 0 -7 5 -12 11 -12 5
0 7 5 4 10 -3 6 -1 10 4 10 6 0 11 9 11 20 0 11 5 20 11 20 5 0 7 -6 3 -12 -5
-10 -4 -10 7 0 7 7 14 29 15 50 0 26 5 37 16 36 16 -1 16 0 20 61 2 29 10 45
26 56 15 11 20 19 13 23 -6 4 -11 2 -11 -4 0 -7 -5 -10 -11 -8 -13 4 -13 23 1
24 6 1 14 2 20 3 5 0 7 8 3 17 -3 9 0 20 8 25 9 6 10 9 2 9 -12 0 -11 19 3 54
5 13 4 17 -3 13 -7 -4 -10 0 -9 10 2 10 6 17 9 16 4 -2 13 -3 20 -3 9 0 8 -3
-2 -9 -8 -5 -9 -11 -3 -15 14 -9 22 20 9 33 -6 6 -7 11 -1 11 6 0 9 20 9 45
-1 25 3 45 8 45 5 0 5 6 -2 13 -8 10 -7 17 1 25 9 9 9 12 -1 12 -10 0 -11 3
-2 13 6 8 7 18 3 22 -4 5 -1 5 6 1 7 -4 10 -12 7 -17 -4 -5 -1 -9 5 -9 7 0 9
8 5 21 -5 14 -4 19 4 15 7 -5 8 -1 4 9 -5 13 -7 14 -14 3 -7 -10 -9 -10 -9 0
0 7 6 15 13 17 8 4 12 28 12 75 -1 59 2 70 15 65 10 -3 10 -1 -3 9 -14 10 -15
15 -5 19 9 4 10 6 1 6 -7 1 -10 7 -8 14 11 32 13 82 4 88 -7 4 -4 9 6 12 9 4
13 3 10 -2 -3 -5 -2 -12 3 -15 7 -4 15 108 14 216 0 15 3 27 7 26 21 -2 30 5
29 25 0 12 0 59 1 105 1 64 4 81 14 76 8 -5 7 -2 -2 9 -8 10 -11 21 -7 24 4 4
11 2 15 -6 12 -19 18 2 20 84 1 39 7 74 12 80 13 13 11 28 -3 19 -7 -4 -8 -3
-4 5 11 17 28 2 21 -20 -4 -10 -2 -19 3 -19 5 0 9 10 9 23 1 61 3 68 20 65 14
-2 18 -13 19 -44 0 -22 4 -45 8 -52 4 -7 2 -12 -4 -12 -6 0 -8 -5 -5 -10 5 -8
11 -8 20 0 11 9 13 5 10 -17 -1 -15 2 -31 9 -35 8 -6 7 -8 -2 -8 -7 0 -10 -5
-6 -12 4 -6 7 -26 6 -45 -1 -18 3 -33 9 -33 6 0 6 -7 -1 -20 -7 -14 -7 -20 0
-20 5 0 10 -7 10 -15 0 -8 -5 -15 -12 -15 -6 0 -8 -3 -5 -6 4 -4 14 -1 23 7
15 12 16 11 10 -9 -5 -15 -3 -22 6 -22 10 0 9 -3 -2 -10 -10 -6 -11 -10 -2
-10 6 0 11 -3 11 -7 -3 -20 2 -33 12 -31 6 2 14 -3 16 -10 3 -8 -1 -10 -11 -6
-9 3 -16 1 -16 -5 0 -6 3 -10 8 -10 22 4 29 -4 26 -26 -1 -15 3 -25 9 -24 30
4 38 -2 32 -21 -6 -19 4 -26 30 -20 6 1 7 -2 3 -6 -4 -4 -3 -13 2 -20 6 -6 9
-18 8 -25 -2 -10 9 -15 35 -17 29 -3 37 -7 37 -23 0 -16 7 -19 45 -19 36 0 43
-3 38 -16 -5 -13 -7 -13 -14 -2 -7 10 -9 10 -9 0 0 -7 6 -15 13 -17 22 -9 263
-12 303 -5 21 4 34 8 28 9 -19 2 -12 31 8 31 13 0 18 7 18 26 0 18 4 24 13 21
8 -3 14 1 14 8 0 7 -5 11 -11 9 -7 -3 -12 18 -14 58 -3 62 -21 93 -34 60 -5
-13 -7 -12 -8 8 -2 14 -2 28 -2 32 1 3 -5 9 -14 12 -11 4 -12 2 -5 -13 7 -13
6 -18 -4 -18 -8 0 -14 3 -13 6 2 22 -9 26 -78 26 -42 0 -78 3 -81 8 -2 4 -8 5
-13 2 -5 -3 -12 0 -16 6 -4 7 -3 9 2 6 6 -3 16 -2 22 2 8 5 -2 8 -24 9 -35 1
-58 17 -48 33 2 4 -4 9 -14 11 -14 4 -19 17 -21 59 -1 30 -7 59 -13 64 -8 7
-9 6 -4 -2 5 -8 2 -11 -7 -7 -11 4 -15 28 -16 99 -1 51 -4 103 -6 116 -6 30
-21 44 -21 20 0 -11 3 -18 6 -16 4 2 7 -2 7 -9 0 -7 -5 -13 -12 -13 -7 0 -12
27 -13 71 -3 93 -6 109 -23 114 -11 3 -12 2 -1 -6 11 -7 11 -10 -2 -15 -9 -4
-15 -3 -15 1 1 4 1 22 0 40 -1 25 -5 32 -18 30 -13 -2 -18 3 -17 19 1 14 -6
25 -17 28 -11 4 -19 12 -19 19 0 8 -10 13 -22 12 -17 -1 -22 4 -20 17 2 14 -5
17 -48 17 -28 0 -50 5 -50 11 0 5 4 8 9 4 5 -3 13 0 17 7 4 7 4 10 -1 6 -4 -4
-14 -3 -21 3 -18 15 -39 1 -24 -16 9 -10 7 -13 -7 -11 -10 2 -17 10 -15 20 3
18 -13 22 -24 4 -4 -7 -3 -8 4 -4 8 5 10 1 5 -10 -6 -16 -8 -15 -16 4 -12 25
-23 28 -30 8 -4 -10 -1 -13 9 -9 7 3 14 1 14 -4 0 -5 -21 -10 -47 -12 -42 -2
-98 -20 -65 -21 6 0 12 -4 12 -8 0 -5 -10 -8 -22 -8 -16 1 -22 -4 -20 -16 1
-9 -3 -20 -9 -24 -7 -4 -9 -3 -6 4 4 5 4 18 1 27 -9 22 -24 0 -19 -27 2 -10
-1 -18 -6 -18 -6 0 -8 -4 -4 -9 3 -5 0 -13 -6 -17 -8 -5 -10 -2 -5 7 4 8 1 5
-8 -5 -8 -10 -13 -23 -10 -27 3 -5 1 -9 -4 -9 -6 0 -8 -10 -5 -22 4 -22 4 -22
-10 -5 -10 12 -17 14 -22 8 -3 -6 0 -11 7 -11 8 0 9 -3 3 -8 -12 -9 -18 -30
-17 -59 1 -14 -6 -24 -19 -28 -15 -5 -18 -9 -9 -15 8 -5 8 -10 2 -14 -6 -3 -9
-17 -7 -31 1 -14 -1 -25 -6 -25 -5 0 -6 -6 -3 -14 3 -8 0 -17 -7 -22 -8 -5
-10 -3 -4 7 5 8 4 11 -1 6 -10 -10 -10 -11 -12 -99 -2 -63 -3 -67 -23 -63 -12
3 -18 1 -15 -3 4 -4 13 -7 19 -7 18 0 14 -78 -4 -83 -11 -3 -11 -2 1 7 11 8
12 11 2 11 -8 0 -10 5 -5 13 12 19 12 34 -1 34 -6 0 -12 -17 -12 -39 -1 -21 4
-38 10 -38 7 0 6 -4 -2 -8 -9 -6 -13 -38 -13 -105 0 -58 -4 -97 -10 -97 -6 0
-7 6 -3 13 5 9 4 9 -7 -1 -8 -8 -14 -38 -15 -80 -6 -228 -10 -284 -19 -289 -5
-4 -7 -3 -3 2 4 4 2 15 -5 23 -6 9 -7 13 -2 10 7 -4 11 12 11 43 0 27 -1 49
-2 49 -1 0 -8 -8 -15 -17 -10 -11 -10 -14 -1 -9 9 5 11 1 8 -16 -3 -13 -5 -23
-6 -23 -2 0 -8 -102 -13 -214 -2 -41 -8 -67 -17 -75 -10 -7 -15 -28 -14 -56 0
-25 -4 -53 -8 -62 -5 -10 -3 -18 4 -20 8 -3 6 -6 -4 -10 -12 -5 -15 0 -13 23
1 16 -1 27 -5 24 -4 -2 -6 -20 -5 -40 1 -19 -2 -35 -6 -35 -4 0 -6 -11 -4 -25
1 -14 -2 -25 -8 -25 -5 0 -4 -6 2 -14 10 -11 8 -16 -9 -21 -15 -5 -20 -13 -17
-26 3 -12 1 -17 -6 -12 -6 4 -8 0 -4 -10 4 -11 -1 -20 -13 -27 -17 -9 -20 -7
-20 10 0 14 -6 20 -17 18 -13 -2 -17 6 -20 42 -1 24 -5 50 -7 57 -3 7 0 13 7
13 8 0 8 3 2 8 -6 4 -10 30 -10 57 1 28 -3 56 -8 63 -5 6 -6 12 -1 12 11 0 11
110 1 128 -5 7 -3 12 5 12 10 0 10 2 -1 9 -9 6 -10 11 -2 15 8 5 8 13 1 26
-12 22 -13 33 -2 26 10 -6 8 76 -2 92 -4 7 -4 12 1 12 4 0 8 50 8 110 0 61 -4
110 -8 110 -5 0 -5 5 -1 12 10 17 11 108 1 108 -4 0 -5 5 -1 12 11 17 11 108
1 108 -5 0 -4 7 3 15 9 11 9 15 1 15 -8 0 -9 6 -3 18 11 22 9 133 -2 151 -6 9
-5 12 1 8 12 -7 11 62 -1 81 -4 7 -3 12 1 12 12 0 10 53 -2 62 -6 5 -5 8 4 8
10 0 11 3 2 14 -9 11 -9 15 1 19 11 4 10 6 0 6 -8 1 -10 6 -6 13 19 30 10 62
-16 60 -3 0 -7 8 -7 19 -1 10 3 19 8 19 6 0 8 -4 4 -9 -3 -5 -1 -12 4 -15 5
-4 12 -2 15 3 4 5 2 12 -3 15 -11 7 -9 25 3 45 6 10 5 12 -3 7 -14 -9 -12 25
3 35 4 4 3 10 -3 13 -6 4 -11 2 -11 -3 0 -6 -4 -11 -9 -11 -5 0 -9 17 -9 38
-1 123 -6 200 -14 196 -4 -3 -8 0 -8 7 0 7 -3 9 -6 6 -4 -4 -1 -14 7 -24 12
-14 12 -16 0 -8 -11 6 -13 4 -8 -9 4 -9 3 -15 -1 -12 -5 3 -9 37 -10 77 -2 74
-5 84 -25 84 -7 0 -14 18 -17 40 -3 26 -10 39 -18 37 -8 -1 -16 7 -19 18 -3
11 -11 20 -19 20 -7 0 -16 5 -20 12 -4 7 -3 8 4 4 16 -10 15 2 -2 19 -7 8 -16
12 -19 9 -3 -4 -16 2 -29 11 -15 11 -17 15 -5 12 9 -4 17 -2 17 3 0 5 -21 10
-47 12 -39 2 -47 6 -45 21 2 9 -2 17 -7 17 -5 0 -8 -8 -6 -18z m-55 -306 c0
-2 -7 -7 -16 -10 -8 -3 -12 -2 -9 4 6 10 25 14 25 6z m365 -306 c1 -30 -7 -32
-11 -3 -2 14 3 33 9 33 1 0 2 -13 2 -30z m-495 -84 c0 -2 -7 -6 -15 -10 -8 -3
-15 -1 -15 4 0 6 7 10 15 10 8 0 15 -2 15 -4z m870 -160 c0 -2 -8 -10 -17 -17
-16 -13 -17 -12 -4 4 13 16 21 21 21 13z m-10 -40 c0 -3 -4 -8 -10 -11 -5 -3
-10 -1 -10 4 0 6 5 11 10 11 6 0 10 -2 10 -4z m-369 -59 c-10 -9 -11 -8 -5 6
3 10 9 15 12 12 3 -3 0 -11 -7 -18z m635 -6 c0 -20 -5 -27 -14 -23 -10 3 -11
7 -2 12 6 4 11 10 11 14 -2 14 -1 26 3 26 2 0 3 -13 2 -29z m-1514 -223 c-7
-7 -12 -8 -12 -2 0 14 12 26 19 19 2 -3 -1 -11 -7 -17z m1472 -6 c3 -5 -1 -9
-9 -9 -8 0 -12 4 -9 9 3 4 7 8 9 8 2 0 6 -4 9 -8z m6 -26 c0 -11 -19 -15 -25
-6 -3 5 1 10 9 10 9 0 16 -2 16 -4z m-303 -122 c0 -7 -5 -11 -10 -7 -5 3 -6
-4 -2 -18 4 -13 4 -21 0 -17 -13 13 -14 55 -1 55 7 0 13 -6 13 -13z m660 -17
c0 -8 -6 -14 -14 -14 -9 0 -10 4 -2 14 6 7 12 13 14 13 1 0 2 -6 2 -13z
m-1211 -603 c1 -9 0 -13 -4 -10 -3 4 -7 14 -8 22 -1 9 0 13 4 10 3 -4 7 -14 8
-22z m1 -39 c0 -8 -4 -15 -9 -15 -10 0 -11 14 -1 23 9 10 10 9 10 -8z m43
-260 c14 -19 14 -19 -2 -6 -10 7 -18 18 -18 24 0 6 1 8 3 6 1 -2 9 -13 17 -24z
m604 9 c3 -8 2 -12 -4 -9 -6 3 -10 10 -10 16 0 14 7 11 14 -7z m-39 -73 c3 -5
2 -12 -3 -15 -5 -3 -9 1 -9 9 0 17 3 19 12 6z m-448 -166 c0 -6 -6 -12 -12
-12 -6 0 -12 6 -12 12 0 6 6 12 12 12 6 0 12 -6 12 -12z m66 -40 c-3 -9 -8
-14 -10 -11 -3 3 -2 9 2 15 9 16 15 13 8 -4z m197 5 c0 -5 -5 -10 -11 -10 -5
0 -7 5 -4 10 3 6 8 10 11 10 2 0 4 -4 4 -10z"/>
<path d="M980 4759 c0 -5 5 -7 10 -4 6 3 10 8 10 11 0 2 -4 4 -10 4 -5 0 -10
-5 -10 -11z"/>
<path d="M3885 4611 c-3 -5 -2 -12 3 -15 5 -3 9 1 9 9 0 17 -3 19 -12 6z"/>
<path d="M3873 4575 c0 -8 4 -12 9 -9 5 3 6 10 3 15 -9 13 -12 11 -12 -6z"/>
<path d="M6320 4500 c-13 -9 -13 -10 0 -10 13 0 13 -1 0 -10 -13 -9 -13 -10 0
-10 12 0 12 -2 2 -9 -11 -7 -11 -9 0 -13 10 -4 14 4 14 28 0 19 0 34 -1 34 0
0 -7 -5 -15 -10z"/>
<path d="M1395 4461 c-3 -5 -2 -12 3 -15 5 -3 9 1 9 9 0 17 -3 19 -12 6z"/>
<path d="M3436 4461 c-4 -5 -2 -12 3 -15 5 -4 12 -2 15 3 4 5 2 12 -3 15 -5 4
-12 2 -15 -3z"/>
<path d="M5634 4452 c-15 -10 -13 -51 3 -45 16 6 17 23 2 23 -8 0 -8 5 1 15
13 16 11 19 -6 7z"/>
<path d="M4146 4342 c-3 -6 -1 -14 5 -17 15 -10 25 3 12 16 -7 7 -13 7 -17 1z"/>
<path d="M1097 4294 c7 -3 9 -13 6 -22 -4 -15 -3 -15 6 -2 15 22 14 30 -6 29
-10 0 -13 -3 -6 -5z"/>
<path d="M2320 4271 c0 -5 5 -13 10 -16 6 -3 10 -2 10 4 0 5 -4 13 -10 16 -5
3 -10 2 -10 -4z"/>
<path d="M633 4205 c0 -8 6 -16 14 -19 11 -4 11 -1 3 14 -13 24 -17 25 -17 5z"/>
<path d="M5624 4155 c0 -33 2 -40 12 -31 7 6 8 13 3 14 -6 2 -5 10 2 18 9 11
8 14 -2 14 -12 0 -12 2 -1 9 11 7 11 9 0 13 -9 4 -13 -6 -14 -37z"/>
<path d="M1796 4062 c-3 -5 1 -9 9 -9 8 0 12 4 9 9 -3 4 -7 8 -9 8 -2 0 -6 -4
-9 -8z"/>
<path d="M606 4037 c3 -10 9 -15 12 -12 3 3 0 11 -7 18 -10 9 -11 8 -5 -6z"/>
<path d="M2434 4039 c-4 -7 -3 -9 4 -5 5 3 13 0 15 -6 4 -9 6 -10 6 -1 1 17
-16 25 -25 12z"/>
<path d="M4265 4020 c-3 -6 1 -7 9 -4 18 7 21 14 7 14 -6 0 -13 -4 -16 -10z"/>
<path d="M5585 3981 c-6 -11 9 -23 19 -14 9 9 7 23 -3 23 -6 0 -12 -4 -16 -9z"/>
<path d="M3396 3938 c3 -5 10 -6 15 -3 13 9 11 12 -6 12 -8 0 -12 -4 -9 -9z"/>
<path d="M4260 3946 c0 -2 8 -10 18 -17 15 -13 16 -12 3 4 -13 16 -21 21 -21
13z"/>
<path d="M5235 3911 c-3 -5 -2 -12 3 -15 5 -3 9 1 9 9 0 17 -3 19 -12 6z"/>
<path d="M2150 3860 c-13 -8 -12 -10 3 -10 9 0 17 5 17 10 0 12 -1 12 -20 0z"/>
<path d="M2140 3836 c0 -2 7 -7 16 -10 8 -3 12 -2 9 4 -6 10 -25 14 -25 6z"/>
<path d="M2473 3796 c0 -8 6 -12 14 -9 7 3 10 9 7 14 -8 14 -21 11 -21 -5z"/>
<path d="M4228 3773 c7 -3 16 -2 19 1 4 3 -2 6 -13 5 -11 0 -14 -3 -6 -6z"/>
<path d="M4220 3756 c0 -2 7 -7 16 -10 8 -3 12 -2 9 4 -6 10 -25 14 -25 6z"/>
<path d="M2513 3675 c0 -8 4 -15 9 -15 4 0 8 7 8 15 0 8 -4 15 -8 15 -5 0 -9
-7 -9 -15z"/>
<path d="M6090 3680 c0 -5 5 -10 11 -10 5 0 7 5 4 10 -3 6 -8 10 -11 10 -2 0
-4 -4 -4 -10z"/>
<path d="M6795 3590 c-3 -5 -1 -10 4 -10 6 0 11 5 11 10 0 6 -2 10 -4 10 -3 0
-8 -4 -11 -10z"/>
<path d="M846 3578 c3 -5 10 -6 15 -3 13 9 11 12 -6 12 -8 0 -12 -4 -9 -9z"/>
<path d="M19 3468 c-8 -35 -7 -49 3 -46 14 5 19 36 7 44 -5 3 -9 4 -10 2z"/>
<path d="M2866 3453 c-8 -20 9 -40 19 -22 6 8 4 10 -5 4 -9 -5 -10 -2 -5 14 8
25 0 29 -9 4z"/>
<path d="M6750 3460 c0 -5 5 -10 10 -10 6 0 10 5 10 10 0 6 -4 10 -10 10 -5 0
-10 -4 -10 -10z"/>
<path d="M2310 3430 c0 -5 5 -10 11 -10 5 0 7 5 4 10 -3 6 -8 10 -11 10 -2 0
-4 -4 -4 -10z"/>
<path d="M4876 3382 c-3 -5 1 -9 9 -9 8 0 12 4 9 9 -3 4 -7 8 -9 8 -2 0 -6 -4
-9 -8z"/>
<path d="M2385 3360 c-3 -6 1 -7 9 -4 18 7 21 14 7 14 -6 0 -13 -4 -16 -10z"/>
<path d="M3588 3353 c7 -3 16 -2 19 1 4 3 -2 6 -13 5 -11 0 -14 -3 -6 -6z"/>
<path d="M2835 3320 c3 -5 8 -10 11 -10 2 0 4 5 4 10 0 6 -5 10 -11 10 -5 0
-7 -4 -4 -10z"/>
<path d="M2618 3279 c-5 -13 6 -15 66 -13 93 3 93 3 76 14 -9 5 -19 5 -27 -2
-7 -6 -13 -6 -13 -2 0 5 -18 9 -39 9 -22 0 -37 -3 -35 -7 3 -5 1 -8 -5 -8 -5
0 -11 5 -13 12 -3 8 -6 7 -10 -3z"/>
<path d="M1974 3245 c0 -14 3 -25 7 -25 3 0 7 11 7 25 0 14 -4 25 -7 25 -4 0
-7 -11 -7 -25z"/>
<path d="M3953 3071 c0 -11 5 -18 9 -15 4 3 5 11 1 19 -7 21 -12 19 -10 -4z"/>
<path d="M6450 2919 c0 -5 5 -7 10 -4 6 3 10 8 10 11 0 2 -4 4 -10 4 -5 0 -10
-5 -10 -11z"/>
<path d="M1613 2896 c3 -8 2 -17 -4 -20 -5 -2 -4 -3 2 -2 15 3 21 36 7 36 -6
0 -8 -6 -5 -14z"/>
<path d="M1895 2720 c3 -5 8 -10 11 -10 2 0 4 5 4 10 0 6 -5 10 -11 10 -5 0
-7 -4 -4 -10z"/>
<path d="M1146 2647 c3 -10 9 -15 12 -12 3 3 0 11 -7 18 -10 9 -11 8 -5 -6z"/>
<path d="M1475 2629 c-4 -6 -5 -12 -2 -15 2 -3 7 2 10 11 7 17 1 20 -8 4z"/>
<path d="M1526 2625 c4 -8 11 -15 16 -15 6 0 5 6 -2 15 -7 8 -14 15 -16 15 -2
0 -1 -7 2 -15z"/>
<path d="M1469 2598 c-5 -18 -6 -38 -1 -34 7 8 12 36 6 36 -2 0 -4 -1 -5 -2z"/>
<path d="M1855 2580 c-3 -5 -1 -10 4 -10 6 0 11 5 11 10 0 6 -2 10 -4 10 -3 0
-8 -4 -11 -10z"/>
<path d="M5935 2309 c-10 -15 3 -25 16 -12 7 7 7 13 1 17 -6 3 -14 1 -17 -5z"/>
<path d="M5038 2303 c7 -3 16 -2 19 1 4 3 -2 6 -13 5 -11 0 -14 -3 -6 -6z"/>
<path d="M4800 1885 c0 -8 2 -15 4 -15 2 0 6 7 10 15 3 8 1 15 -4 15 -6 0 -10
-7 -10 -15z"/>
<path d="M3255 1539 c-4 -6 -5 -12 -2 -15 2 -3 7 2 10 11 7 17 1 20 -8 4z"/>
<path d="M5396 1525 c-3 -8 -1 -15 4 -15 6 0 10 7 10 15 0 8 -2 15 -4 15 -2 0
-6 -7 -10 -15z"/>
<path d="M3296 1453 c-6 -14 -5 -15 5 -6 7 7 10 15 7 18 -3 3 -9 -2 -12 -12z"/>
<path d="M3335 1070 c-8 -13 3 -30 18 -29 9 0 9 2 0 5 -7 3 -9 12 -6 20 6 16
-3 19 -12 4z"/>
<path d="M4440 995 c0 -9 6 -12 15 -9 8 4 15 7 15 9 0 2 -7 5 -15 9 -9 3 -15
0 -15 -9z"/>
<path d="M5211 994 c0 -11 3 -14 6 -6 3 7 2 16 -1 19 -3 4 -6 -2 -5 -13z"/>
<path d="M5163 905 c0 -8 4 -15 9 -15 4 0 8 4 8 9 0 6 -4 12 -8 15 -5 3 -9 -1
-9 -9z"/>
<path d="M3711 733 c-1 -18 13 -23 29 -11 12 8 12 9 -2 5 -9 -3 -19 -1 -22 6
-3 9 -5 9 -5 0z"/>
<path d="M3766 718 c3 -5 10 -6 15 -3 13 9 11 12 -6 12 -8 0 -12 -4 -9 -9z"/>
<path d="M4100 720 c0 -5 9 -8 20 -7 21 1 18 10 -5 13 -8 1 -15 -2 -15 -6z"/>
</g>
</svg>
